<svg version="1.1" xmlns="http://www.w3.org/2000/svg" viewBox="0 0 617.5999450683594 305.3999938964844" width="617.5999450683594" height="305.3999938964844">
  <!-- svg-source:excalidraw -->
  
  <defs>
    <style class="style-fonts">
      @font-face {
        font-family: "Virgil";
        src: url("https://excalidraw.com/Virgil.woff2");
      }
      @font-face {
        font-family: "Cascadia";
        src: url("https://excalidraw.com/Cascadia.woff2");
      }
    </style>
    
  </defs>
  <rect x="0" y="0" width="617.5999450683594" height="305.3999938964844" fill="#ffffff"></rect><g stroke-linecap="round" transform="translate(14 10) rotate(0 21 18.5)"><path d="M9.25 0 M9.25 0 C19.46 2, 25.7 2.05, 32.75 0 M9.25 0 C13.87 -0.23, 18.08 0.7, 32.75 0 M32.75 0 C40.51 -1.6, 42.12 3.21, 42 9.25 M32.75 0 C37.99 -0.79, 42.76 0.87, 42 9.25 M42 9.25 C43.15 15.06, 41.49 22.89, 42 27.75 M42 9.25 C41.13 13.63, 42.62 17.32, 42 27.75 M42 27.75 C43.22 34.94, 36.96 38.08, 32.75 37 M42 27.75 C42.26 34.56, 40.53 35.65, 32.75 37 M32.75 37 C26.36 38.79, 17.91 35.64, 9.25 37 M32.75 37 C27.39 36.29, 20.3 37.99, 9.25 37 M9.25 37 C4.78 35.73, 0.81 33.32, 0 27.75 M9.25 37 C3.03 36.97, 1.55 35.32, 0 27.75 M0 27.75 C-1 20.79, -1.8 17.78, 0 9.25 M0 27.75 C0.3 21.87, -0.04 15.12, 0 9.25 M0 9.25 C-1.19 4.01, 2.34 0.28, 9.25 0 M0 9.25 C-0.95 1.41, 3.33 0.14, 9.25 0" stroke="#1e1e1e" stroke-width="1" fill="none"></path></g><g transform="translate(29.66400146484375 18.5) rotate(0 5.33599853515625 10)"><text x="5.33599853515625" y="0" font-family="Virgil, Segoe UI Emoji" font-size="16px" fill="#1e1e1e" text-anchor="middle" style="white-space: pre;" direction="ltr" dominant-baseline="text-before-edge">a</text></g><g stroke-linecap="round" transform="translate(10 184.0999755859375) rotate(0 21 18.5)"><path d="M9.25 0 M9.25 0 C14 1.05, 20.94 -0.28, 32.75 0 M9.25 0 C18.46 0.98, 27.85 -0.06, 32.75 0 M32.75 0 C38.13 1.38, 42.39 1.87, 42 9.25 M32.75 0 C39.08 1.21, 43.39 3.65, 42 9.25 M42 9.25 C43.11 13.85, 40.22 19.95, 42 27.75 M42 9.25 C42.53 14.67, 41.17 19.4, 42 27.75 M42 27.75 C40.49 32.62, 39.41 38.84, 32.75 37 M42 27.75 C41.32 32.05, 38.42 37.59, 32.75 37 M32.75 37 C25.29 35.67, 20.67 36.1, 9.25 37 M32.75 37 C24.86 37.24, 16.13 37.67, 9.25 37 M9.25 37 C1.25 36.01, -0.1 32.45, 0 27.75 M9.25 37 C2.53 37.64, -1 33.85, 0 27.75 M0 27.75 C1.43 25.16, -1.05 19.63, 0 9.25 M0 27.75 C-0.58 21.48, -0.48 15.68, 0 9.25 M0 9.25 C1.36 4.32, 1.97 -1.59, 9.25 0 M0 9.25 C2.22 3.83, 3.75 -1.94, 9.25 0" stroke="#1e1e1e" stroke-width="1" fill="none"></path></g><g transform="translate(26.936004638671875 192.5999755859375) rotate(0 4.063995361328125 10)"><text x="4.063995361328125" y="0" font-family="Virgil, Segoe UI Emoji" font-size="16px" fill="#1e1e1e" text-anchor="middle" style="white-space: pre;" direction="ltr" dominant-baseline="text-before-edge">b</text></g><g stroke-linecap="round" transform="translate(127.60012817382812 83.4000244140625) rotate(0 57.199981689453125 30)"><path d="M72.5 7.75 M72.5 7.75 C80.59 11.97, 87.18 17.14, 99.9 23.25 M72.5 7.75 C79.05 11.23, 84.74 14.53, 99.9 23.25 M99.9 23.25 C112.87 32.39, 114.24 29.11, 99.9 38.75 M99.9 23.25 C113.12 32.43, 115.89 30.57, 99.9 38.75 M99.9 38.75 C93.46 42.53, 84.68 46, 72.5 52.25 M99.9 38.75 C93.19 42.47, 86.03 45.35, 72.5 52.25 M72.5 52.25 C59.94 61.88, 56.46 61.55, 43.5 52.25 M72.5 52.25 C56.44 58.88, 58.91 60.02, 43.5 52.25 M43.5 52.25 C36.09 49.35, 31.23 47.07, 14.5 38.75 M43.5 52.25 C35.21 49.12, 28.8 45.65, 14.5 38.75 M14.5 38.75 C-0.55 31.22, -0.75 30.79, 14.5 23.25 M14.5 38.75 C0.39 31.1, 2.06 29.3, 14.5 23.25 M14.5 23.25 C26.17 18.45, 36.02 12.22, 43.5 7.75 M14.5 23.25 C21.31 19.8, 27.49 16.12, 43.5 7.75 M43.5 7.75 C56.54 1.44, 59.89 1.44, 72.5 7.75 M43.5 7.75 C57.79 1.84, 56.15 -0.26, 72.5 7.75" stroke="#1e1e1e" stroke-width="1" fill="none"></path></g><g transform="translate(165.92413330078125 103.4000244140625) rotate(0 18.775985717773438 10)"><text x="18.775985717773438" y="0" font-family="Virgil, Segoe UI Emoji" font-size="16px" fill="#1e1e1e" text-anchor="middle" style="white-space: pre;" direction="ltr" dominant-baseline="text-before-edge">Nand</text></g><g stroke-linecap="round"><g transform="translate(66.79998779296875 35.06115734225773) rotate(0 55.5775628074455 20.613539665819076)"><path d="M-0.59 0.71 C17.78 7.49, 90.93 33.44, 109.55 39.84 M1.31 0.04 C20.09 7.06, 93.52 34.55, 111.74 41.19" stroke="#1e1e1e" stroke-width="1" fill="none"></path></g><g transform="translate(66.79998779296875 35.06115734225773) rotate(0 55.5775628074455 20.613539665819076)"><path d="M82.93 39.38 C88.6 42.14, 94.86 42.33, 110.91 40.06 M80.76 40.44 C89.09 40.49, 95.03 41.58, 111.48 41.38" stroke="#1e1e1e" stroke-width="1" fill="none"></path></g><g transform="translate(66.79998779296875 35.06115734225773) rotate(0 55.5775628074455 20.613539665819076)"><path d="M90.05 20.14 C93.83 27.64, 98.31 32.62, 110.91 40.06 M87.88 21.19 C94.82 25.41, 99.24 30.62, 111.48 41.38" stroke="#1e1e1e" stroke-width="1" fill="none"></path></g></g><mask></mask><g stroke-linecap="round"><g transform="translate(63.600006103515625 205.15393512919013) rotate(0 58.5251255029458 -23.92120775046635)"><path d="M0.77 -0.68 C20.1 -9.03, 95.85 -41.33, 115.19 -49.42 M-0.29 1.58 C19.46 -6.67, 97.9 -39.87, 117.34 -48.15" stroke="#1e1e1e" stroke-width="1" fill="none"></path></g><g transform="translate(63.600006103515625 205.15393512919013) rotate(0 58.5251255029458 -23.92120775046635)"><path d="M94.26 -29.49 C99.62 -31.8, 105.14 -36.48, 118.82 -47.76 M96.32 -27.56 C102.6 -34.58, 109.71 -40.25, 117 -48.4" stroke="#1e1e1e" stroke-width="1" fill="none"></path></g><g transform="translate(63.600006103515625 205.15393512919013) rotate(0 58.5251255029458 -23.92120775046635)"><path d="M86.24 -48.39 C93.61 -46.28, 101.02 -46.49, 118.82 -47.76 M88.3 -46.46 C96.89 -47.66, 106.45 -47.54, 117 -48.4" stroke="#1e1e1e" stroke-width="1" fill="none"></path></g></g><mask></mask><g stroke-linecap="round" transform="translate(300.79998779296875 160.7999267578125) rotate(0 57.199981689453125 30)"><path d="M72.5 7.75 M72.5 7.75 C77.81 12.86, 87.23 15.34, 99.9 23.25 M72.5 7.75 C78.63 12.23, 86.96 16.26, 99.9 23.25 M99.9 23.25 C114.52 31.48, 112.49 32.34, 99.9 38.75 M99.9 23.25 C114.79 30.41, 113.04 29.46, 99.9 38.75 M99.9 38.75 C92.2 40.98, 84.26 47.71, 72.5 52.25 M99.9 38.75 C89.74 44.62, 80.41 48.49, 72.5 52.25 M72.5 52.25 C59.53 61.61, 59.87 61.53, 43.5 52.25 M72.5 52.25 C58.1 59.81, 56.42 62.07, 43.5 52.25 M43.5 52.25 C38.49 47.19, 31.32 46.99, 14.5 38.75 M43.5 52.25 C33.88 47.08, 24.59 43.21, 14.5 38.75 M14.5 38.75 C-0.47 31.88, 0.76 30.62, 14.5 23.25 M14.5 38.75 C-1.3 33.04, 1.85 31.38, 14.5 23.25 M14.5 23.25 C25.14 18.57, 36.8 12.58, 43.5 7.75 M14.5 23.25 C24.71 17.66, 35.78 11.33, 43.5 7.75 M43.5 7.75 C57.51 0.78, 58.35 -0.34, 72.5 7.75 M43.5 7.75 C57.36 1.11, 56.43 1.85, 72.5 7.75" stroke="#1e1e1e" stroke-width="1" fill="none"></path></g><g transform="translate(339.1239929199219 180.7999267578125) rotate(0 18.775985717773438 10)"><text x="18.775985717773438" y="0" font-family="Virgil, Segoe UI Emoji" font-size="16px" fill="#1e1e1e" text-anchor="middle" style="white-space: pre;" direction="ltr" dominant-baseline="text-before-edge">Nand</text></g><g stroke-linecap="round" transform="translate(154.00009155273438 255.39999389648438) rotate(0 42 20)"><path d="M10 0 M10 0 C31.82 -1.85, 54.79 -0.99, 74 0 M10 0 C35.56 -0.02, 60.39 -1.1, 74 0 M74 0 C79.03 -0.36, 85.66 1.98, 84 10 M74 0 C79.27 1.68, 86.25 4.63, 84 10 M84 10 C82.95 18.85, 84.49 24.33, 84 30 M84 10 C84.16 14.09, 84.58 18.01, 84 30 M84 30 C84 35.43, 81.22 38.79, 74 40 M84 30 C82.2 35.23, 82.95 41.22, 74 40 M74 40 C47.55 38.81, 26.17 42.47, 10 40 M74 40 C52.91 40.71, 32.64 40.16, 10 40 M10 40 C3.06 41.39, -1.15 35.63, 0 30 M10 40 C4.4 41.89, -1.61 36.68, 0 30 M0 30 C0.28 20.91, -1 15.39, 0 10 M0 30 C0.26 23.24, 0.19 18.35, 0 10 M0 10 C-0.51 1.77, 1.45 -1.82, 10 0 M0 10 C-0.57 1.22, 1.92 2.28, 10 0" stroke="#1e1e1e" stroke-width="1" fill="none"></path></g><g transform="translate(165.01610565185547 265.3999938964844) rotate(0 30.983985900878906 10)"><text x="30.983985900878906" y="0" font-family="Virgil, Segoe UI Emoji" font-size="16px" fill="#1e1e1e" text-anchor="middle" style="white-space: pre;" direction="ltr" dominant-baseline="text-before-edge">True (1)</text></g><g stroke-linecap="round"><g transform="translate(245.2024133365769 119.67284660997029) rotate(0 53.46410018000353 15.401452224722334)"><path d="M0.72 -0.07 C18.44 5.09, 89.65 25.27, 107.29 30.35 M-0.36 -1.16 C17.21 4.27, 89.19 26.47, 106.92 31.96" stroke="#1e1e1e" stroke-width="1" fill="none"></path></g><g transform="translate(245.2024133365769 119.67284660997029) rotate(0 53.46410018000353 15.401452224722334)"><path d="M76.83 35.28 C88.71 33.3, 100.24 30.34, 106.49 30.26 M77.52 32.74 C84.22 33.74, 92.37 31.81, 106.84 31.45" stroke="#1e1e1e" stroke-width="1" fill="none"></path></g><g transform="translate(245.2024133365769 119.67284660997029) rotate(0 53.46410018000353 15.401452224722334)"><path d="M82.89 15.67 C92.34 21.26, 101.55 25.83, 106.49 30.26 M83.57 13.14 C88.86 18.97, 95.52 21.87, 106.84 31.45" stroke="#1e1e1e" stroke-width="1" fill="none"></path></g></g><mask></mask><g stroke-linecap="round"><g transform="translate(250.00003051757812 277.2113258927243) rotate(0 49.67822347595035 -22.811968573372383)"><path d="M-0.13 -0.3 C16.51 -7.65, 84.06 -36.12, 101.02 -43.61 M-1.66 -1.5 C14.7 -9.24, 82.83 -38.18, 99.95 -45.32" stroke="#1e1e1e" stroke-width="1" fill="none"></path></g><g transform="translate(250.00003051757812 277.2113258927243) rotate(0 49.67822347595035 -22.811968573372383)"><path d="M77.47 -25.3 C87.87 -32.34, 93.86 -41.64, 100.53 -46.22 M78.69 -24.52 C85.12 -32.2, 91.93 -39.57, 99.7 -45.6" stroke="#1e1e1e" stroke-width="1" fill="none"></path></g><g transform="translate(250.00003051757812 277.2113258927243) rotate(0 49.67822347595035 -22.811968573372383)"><path d="M69.48 -44.21 C83.11 -43.77, 92.26 -45.6, 100.53 -46.22 M70.71 -43.43 C79.95 -44.63, 89.48 -45.55, 99.7 -45.6" stroke="#1e1e1e" stroke-width="1" fill="none"></path></g></g><mask></mask><g stroke-linecap="round"><g transform="translate(423.7146638453819 191.10883513606746) rotate(0 48.97520272267923 -0.18722138034991076)"><path d="M0.8 0.37 C16.61 0.35, 80.08 0.85, 95.89 0.76 M-0.24 -0.49 C15.87 -0.94, 81.8 -1.3, 98.19 -1.07" stroke="#1e1e1e" stroke-width="1" fill="none"></path></g><g transform="translate(423.7146638453819 191.10883513606746) rotate(0 48.97520272267923 -0.18722138034991076)"><path d="M70.59 7.8 C81.7 3.38, 90.95 -0.82, 98.26 -2.77 M69.96 8.3 C78.04 6.83, 87.06 2.15, 98.52 -1.82" stroke="#1e1e1e" stroke-width="1" fill="none"></path></g><g transform="translate(423.7146638453819 191.10883513606746) rotate(0 48.97520272267923 -0.18722138034991076)"><path d="M70.63 -12.72 C81.87 -9.25, 91.11 -5.55, 98.26 -2.77 M70.01 -12.22 C78.27 -7.51, 87.27 -6.01, 98.52 -1.82" stroke="#1e1e1e" stroke-width="1" fill="none"></path></g></g><mask></mask><g stroke-linecap="round" transform="translate(533.9999694824219 154.5999755859375) rotate(0 36.79998779296875 36.79998779296875)"><path d="M48.53 2.87 C55.19 4.71, 63.74 9.22, 68.08 15.2 C72.41 21.18, 75.06 31.27, 74.53 38.74 C74.01 46.21, 69.64 54.34, 64.94 60.01 C60.25 65.67, 53.09 70.96, 46.36 72.75 C39.63 74.53, 31.26 73.14, 24.55 70.72 C17.85 68.3, 10.38 64.06, 6.13 58.22 C1.87 52.37, -1.08 42.99, -0.96 35.63 C-0.85 28.28, 2.41 19.71, 6.82 14.08 C11.23 8.46, 17.3 3.39, 25.48 1.89 C33.66 0.4, 50.16 3.76, 55.91 5.14 C61.65 6.52, 60.14 9.75, 59.94 10.19 M48.76 3.66 C55.51 5.71, 63.63 10.23, 67.7 15.85 C71.77 21.47, 73.33 30.15, 73.15 37.38 C72.97 44.61, 70.84 53.55, 66.64 59.23 C62.44 64.91, 54.81 69.56, 47.95 71.47 C41.08 73.38, 32.55 72.83, 25.46 70.69 C18.37 68.56, 9.64 64.7, 5.38 58.63 C1.13 52.56, -0.46 41.95, -0.08 34.27 C0.29 26.6, 3.11 18.03, 7.63 12.58 C12.14 7.14, 20.01 3.35, 27.03 1.59 C34.05 -0.17, 45.81 1.89, 49.72 2.02 C53.63 2.14, 50.78 1.51, 50.47 2.36" stroke="#1e1e1e" stroke-width="1" fill="none"></path></g><g transform="translate(555.9064423408456 181.37844246291593) rotate(0 14.871994018554688 10)"><text x="14.871994018554688" y="0" font-family="Virgil, Segoe UI Emoji" font-size="16px" fill="#1e1e1e" text-anchor="middle" style="white-space: pre;" direction="ltr" dominant-baseline="text-before-edge">Out</text></g></svg>