<svg version="1.1" xmlns="http://www.w3.org/2000/svg" viewBox="0 0 1714.4448343912757 860" width="5143.334503173827" height="2580">
  <!-- svg-source:excalidraw -->
  
  <defs>
    <style class="style-fonts">
      @font-face {
        font-family: "Virgil";
        src: url("https://excalidraw.com/Virgil.woff2");
      }
      @font-face {
        font-family: "Cascadia";
        src: url("https://excalidraw.com/Cascadia.woff2");
      }
    </style>
    
  </defs>
  <g stroke-linecap="round" transform="translate(522.2221374511716 381.11114501953125) rotate(0 203 73)"><path d="M110.25 7.63 C126.41 3.55, 149.39 2.7, 170.05 1.58 C190.71 0.46, 213.56 -0.2, 234.19 0.93 C254.83 2.06, 275.2 4.88, 293.88 8.35 C312.57 11.83, 331.36 16.65, 346.28 21.76 C361.21 26.87, 373.97 32.52, 383.42 39.03 C392.87 45.54, 399.72 53.42, 402.99 60.83 C406.26 68.24, 406.13 75.98, 403.04 83.49 C399.95 91, 393.75 99.08, 384.45 105.89 C375.16 112.71, 361.87 119.09, 347.27 124.39 C332.67 129.68, 315.43 134.12, 296.85 137.66 C278.27 141.2, 256.63 144.53, 235.77 145.63 C214.91 146.72, 192.48 145.47, 171.7 144.24 C150.92 143.02, 129.56 141.31, 111.11 138.26 C92.65 135.2, 75.73 131.02, 60.97 125.89 C46.2 120.77, 32.17 114.47, 22.51 107.49 C12.85 100.51, 6.47 91.67, 3.02 84.04 C-0.44 76.41, -1.42 68.99, 1.78 61.71 C4.98 54.43, 12.82 46.98, 22.23 40.34 C31.65 33.69, 42.09 27.36, 58.25 21.86 C74.41 16.36, 107.51 9.88, 119.19 7.34 C130.87 4.8, 127.24 5.52, 128.35 6.63 M117.28 7.88 C133.87 3.7, 157.29 1.42, 178.13 0.16 C198.96 -1.11, 221.79 -1.33, 242.3 0.28 C262.82 1.89, 283.22 6.05, 301.2 9.82 C319.18 13.59, 335.84 17.59, 350.18 22.92 C364.52 28.25, 378.02 34.72, 387.22 41.8 C396.42 48.88, 402.72 57.86, 405.38 65.38 C408.05 72.91, 407.46 79.54, 403.23 86.93 C399 94.33, 390.1 103.1, 379.99 109.74 C369.89 116.39, 357.85 121.85, 342.59 126.81 C327.33 131.77, 307.69 136.27, 288.46 139.51 C269.22 142.76, 247.59 145.17, 227.2 146.27 C206.82 147.37, 186.55 147.79, 166.14 146.11 C145.73 144.43, 123.08 139.84, 104.72 136.21 C86.36 132.59, 70.1 129.51, 55.98 124.37 C41.85 119.23, 28.9 112.37, 19.96 105.37 C11.01 98.36, 5.14 90.23, 2.29 82.34 C-0.55 74.46, -1.02 65.42, 2.9 58.05 C6.81 50.68, 15.41 44.58, 25.79 38.13 C36.18 31.68, 50.21 24.4, 65.2 19.37 C80.2 14.33, 107.02 9.6, 115.77 7.93 C124.51 6.26, 115.83 8.21, 117.65 9.35" stroke="#1e1e1e" stroke-width="4" fill="none"></path></g><g transform="translate(592.9919608703024 432.3923499929133) rotate(0 132.1875 21.59999999999991)"><text x="132.1875" y="0" font-family="Cascadia, Segoe UI Emoji" font-size="36px" fill="#1e1e1e" text-anchor="middle" style="white-space: pre;" direction="ltr" dominant-baseline="text-before-edge">多通道多位 Mux</text></g><g stroke-linecap="round" transform="translate(195.5555725097654 126.66669209798238) rotate(0 48.33333333333326 48.33333333333303)"><path d="M33.7 2.7 C40.76 -0.1, 50.22 0.29, 57.99 1.88 C65.76 3.47, 74.16 6.86, 80.31 12.25 C86.47 17.64, 92.51 26.47, 94.94 34.22 C97.37 41.98, 96.84 50.87, 94.9 58.8 C92.96 66.73, 88.49 75.88, 83.28 81.8 C78.06 87.73, 71.26 92.13, 63.59 94.35 C55.93 96.57, 45.14 96.84, 37.3 95.12 C29.46 93.41, 22.31 89.4, 16.55 84.05 C10.79 78.7, 5.3 70.74, 2.75 63.04 C0.2 55.33, -0.41 45.81, 1.25 37.84 C2.91 29.87, 7.05 21.31, 12.72 15.23 C18.38 9.15, 31.18 3.47, 35.23 1.35 C39.29 -0.77, 36.89 1.72, 37.04 2.52 M30.07 2.32 C36.46 -1.35, 45.81 -2.2, 53.79 -0.9 C61.76 0.41, 71.15 5.03, 77.89 10.14 C84.62 15.26, 91.02 22.27, 94.19 29.78 C97.36 37.3, 97.97 46.95, 96.89 55.23 C95.8 63.51, 92.99 73.09, 87.68 79.48 C82.37 85.87, 72.56 90.54, 65.01 93.57 C57.46 96.6, 50.22 98.65, 42.39 97.66 C34.56 96.68, 24.42 92.63, 18.03 87.65 C11.64 82.68, 6.73 75.49, 4.03 67.81 C1.33 60.13, 0.65 49.62, 1.82 41.57 C2.99 33.53, 6.28 25.94, 11.05 19.55 C15.83 13.17, 27.46 5.54, 30.46 3.25 C33.47 0.96, 28.99 4.94, 29.1 5.8" stroke="#1e1e1e" stroke-width="4" fill="none"></path></g><g transform="translate(233.165203085749 153.22319767396584) rotate(0 10.546875 21.59999999999991)"><text x="10.546875" y="0" font-family="Cascadia, Segoe UI Emoji" font-size="36px" fill="#1e1e1e" text-anchor="middle" style="white-space: pre;" direction="ltr" dominant-baseline="text-before-edge">a</text></g><g stroke-linecap="round" transform="translate(193.88890584309888 303.88890584309866) rotate(0 48.33333333333326 48.333333333333485)"><path d="M49.94 1 C57.68 0.54, 67.3 3.35, 74.02 7.48 C80.73 11.61, 86.57 18.69, 90.25 25.78 C93.93 32.87, 96.25 41.97, 96.1 50.02 C95.95 58.06, 93.56 67.06, 89.34 74.05 C85.11 81.04, 77.99 88.23, 70.76 91.94 C63.52 95.66, 54.03 96.93, 45.94 96.33 C37.86 95.74, 29.02 92.63, 22.26 88.36 C15.51 84.09, 9.13 77.81, 5.43 70.73 C1.74 63.66, -0.16 53.79, 0.09 45.88 C0.35 37.98, 2.52 30.2, 6.94 23.32 C11.36 16.43, 17.61 8.16, 26.62 4.56 C35.64 0.97, 53.69 1.53, 61.05 1.74 C68.4 1.96, 70.93 5.23, 70.76 5.83 M35.12 1.92 C42.34 -0.89, 51.03 0.26, 58.73 1.87 C66.43 3.48, 75.14 6.35, 81.3 11.59 C87.47 16.83, 93.47 25.49, 95.71 33.32 C97.95 41.15, 96.51 50.44, 94.72 58.59 C92.92 66.73, 90.07 76.05, 84.96 82.18 C79.84 88.32, 71.74 93.42, 64.05 95.42 C56.35 97.43, 46.85 96.2, 38.77 94.2 C30.7 92.21, 21.59 88.71, 15.62 83.45 C9.66 78.18, 5.32 70.3, 2.99 62.63 C0.67 54.96, -0.14 45.25, 1.66 37.42 C3.47 29.59, 8.26 21.39, 13.83 15.63 C19.41 9.88, 31.64 4.93, 35.11 2.91 C38.58 0.89, 34.58 2.8, 34.64 3.51" stroke="#1e1e1e" stroke-width="4" fill="none"></path></g><g transform="translate(231.49853641908248 330.4454114190821) rotate(0 10.546875 21.59999999999991)"><text x="10.546875" y="0" font-family="Cascadia, Segoe UI Emoji" font-size="36px" fill="#1e1e1e" text-anchor="middle" style="white-space: pre;" direction="ltr" dominant-baseline="text-before-edge">b</text></g><g stroke-linecap="round" transform="translate(196.66651407877566 479.4444783528652) rotate(0 48.33333333333326 48.33333333333303)"><path d="M26.09 5.44 C32.6 1.46, 42.51 -0.21, 50.74 0.14 C58.98 0.49, 68.76 3.16, 75.49 7.53 C82.23 11.89, 87.76 19.11, 91.15 26.34 C94.54 33.57, 96.22 42.84, 95.84 50.91 C95.46 58.98, 93.2 68.13, 88.86 74.79 C84.53 81.44, 76.85 87.09, 69.81 90.84 C62.77 94.58, 54.76 97.54, 46.62 97.24 C38.49 96.94, 27.89 93.44, 21.01 89.02 C14.13 84.6, 8.9 77.86, 5.32 70.71 C1.75 63.56, -0.69 54.36, -0.44 46.13 C-0.18 37.9, 1.83 28.45, 6.88 21.32 C11.92 14.2, 25.02 6.46, 29.81 3.36 C34.61 0.27, 35.25 1.91, 35.63 2.75 M51.16 -0.65 C58.99 -0.83, 68.12 4.52, 75.08 9.38 C82.03 14.25, 89.16 21.28, 92.9 28.52 C96.64 35.76, 98.47 44.99, 97.5 52.81 C96.52 60.64, 91.82 68.83, 87.08 75.46 C82.33 82.09, 76.08 89.01, 69.03 92.6 C61.98 96.2, 52.8 97.56, 44.79 97.03 C36.77 96.5, 27.58 93.81, 20.93 89.41 C14.29 85.01, 8.27 77.99, 4.92 70.64 C1.57 63.29, 0.21 53.53, 0.84 45.32 C1.47 37.11, 4.24 28.38, 8.7 21.4 C13.15 14.42, 20.58 6.85, 27.57 3.46 C34.56 0.06, 46.51 1.57, 50.63 1.03 C54.75 0.5, 52.29 -0.46, 52.29 0.27" stroke="#1e1e1e" stroke-width="4" fill="none"></path></g><g transform="translate(234.27614465475926 506.00098392884865) rotate(0 10.546875 21.59999999999991)"><text x="10.546875" y="0" font-family="Cascadia, Segoe UI Emoji" font-size="36px" fill="#1e1e1e" text-anchor="middle" style="white-space: pre;" direction="ltr" dominant-baseline="text-before-edge">c</text></g><g stroke-linecap="round" transform="translate(199.99974568684797 662.7779134114617) rotate(0 48.33333333333326 48.333333333333485)"><path d="M66.04 2.65 C73.45 4.89, 81.17 12.02, 86.19 18.4 C91.22 24.78, 95.13 32.82, 96.2 40.94 C97.28 49.05, 95.52 59.69, 92.65 67.09 C89.77 74.49, 85.14 80.46, 78.96 85.32 C72.78 90.18, 63.54 95.02, 55.55 96.25 C47.56 97.49, 38.47 95.9, 31.02 92.75 C23.57 89.6, 16.03 83.68, 10.84 77.34 C5.66 71, 1.16 62.39, -0.09 54.71 C-1.34 47.03, 0.3 38.69, 3.34 31.29 C6.39 23.88, 11.76 15.4, 18.17 10.29 C24.58 5.19, 33.18 1.32, 41.79 0.65 C50.39 -0.02, 64.46 5.01, 69.81 6.27 C75.16 7.52, 74.16 7.5, 73.89 8.2 M66.64 1.9 C73.83 3.76, 80.87 10.99, 85.91 17.45 C90.94 23.9, 95.52 32.64, 96.86 40.61 C98.21 48.58, 96.8 57.73, 93.96 65.29 C91.12 72.84, 85.97 80.67, 79.83 85.92 C73.69 91.17, 65.18 95.45, 57.13 96.78 C49.07 98.1, 39.18 96.81, 31.49 93.87 C23.79 90.93, 16.34 85.66, 10.96 79.15 C5.57 72.64, 0.34 62.72, -0.8 54.8 C-1.94 46.89, 1.13 39.12, 4.1 31.65 C7.08 24.17, 10.88 15.37, 17.06 9.97 C23.23 4.56, 32.95 0.54, 41.18 -0.79 C49.4 -2.12, 62.17 1.35, 66.4 1.99 C70.63 2.62, 66.95 1.9, 66.53 3.02" stroke="#1e1e1e" stroke-width="4" fill="none"></path></g><g transform="translate(237.60937626283157 689.3344189874451) rotate(0 10.546875 21.59999999999991)"><text x="10.546875" y="0" font-family="Cascadia, Segoe UI Emoji" font-size="36px" fill="#1e1e1e" text-anchor="middle" style="white-space: pre;" direction="ltr" dominant-baseline="text-before-edge">d</text></g><g stroke-linecap="round"><g transform="translate(307.77704307181125 528.9232323362721) rotate(0 107.59230858168723 -22.021234799829017)"><path d="M0.56 -0.41 C36.02 -7.36, 177.95 -35.09, 213.47 -41.98 M-0.6 -1.66 C35.18 -8.92, 180.25 -36.66, 215.79 -43.64" stroke="#1e1e1e" stroke-width="4" fill="none"></path></g><g transform="translate(307.77704307181125 528.9232323362721) rotate(0 107.59230858168723 -22.021234799829017)"><path d="M213.98 -42.86 L202.36 -36.83 L201.04 -46.24 L217.1 -45.6" stroke="none" stroke-width="0" fill="#1e1e1e" fill-rule="evenodd"></path><path d="M215.28 -44.58 C212.51 -41.07, 208.39 -36.57, 204.83 -35.89 M215.32 -43.24 C212.52 -41.61, 207.72 -37.82, 203.52 -34.38 M202.83 -35.7 C202.19 -39.17, 203.23 -40.29, 202.06 -48.28 M203.75 -34.57 C203.08 -37.85, 202.97 -40.31, 201.67 -47.56 M202.3 -46.81 C205.57 -47.68, 210.56 -44.94, 215.55 -44.28 M201.43 -47.66 C206.58 -45.78, 211.54 -45.32, 215.59 -43.13 M215.79 -43.64 C215.79 -43.64, 215.79 -43.64, 215.79 -43.64 M215.79 -43.64 C215.79 -43.64, 215.79 -43.64, 215.79 -43.64" stroke="#1e1e1e" stroke-width="4" fill="none"></path></g></g><mask></mask><g stroke-linecap="round"><g transform="translate(304.50852719391946 350.4530148628037) rotate(0 103.16222091524321 40.154744481292255)"><path d="M0.85 0.16 C35.33 13.34, 172.07 66.26, 206.49 79.65 M-0.16 -0.81 C34.21 12.53, 171.04 67.89, 205.57 81.12" stroke="#1e1e1e" stroke-width="4" fill="none"></path></g><g transform="translate(304.50852719391946 350.4530148628037) rotate(0 103.16222091524321 40.154744481292255)"><path d="M204.51 80.68 L192.06 81.19 L195.24 71.43 L205.63 81.45" stroke="none" stroke-width="0" fill="#1e1e1e" fill-rule="evenodd"></path><path d="M205.77 81.2 C201.43 82.61, 198.54 82.13, 189.72 83.12 M205.71 80.81 C200.24 81.82, 195.11 80.91, 190.62 81.75 M191.8 81.5 C191.33 79.01, 192.46 74.25, 194.5 71.15 M190.47 82.38 C191.3 79.25, 192.39 76.27, 194.98 70.85 M196.34 71.18 C198.66 72.77, 201.27 73.58, 204.82 80.45 M194.73 70.67 C198.26 74.24, 201.62 77.24, 204.82 81.25 M205.57 81.12 C205.57 81.12, 205.57 81.12, 205.57 81.12 M205.57 81.12 C205.57 81.12, 205.57 81.12, 205.57 81.12" stroke="#1e1e1e" stroke-width="4" fill="none"></path></g></g><mask></mask><g stroke-linecap="round"><g transform="translate(305.2258041681823 701.2059805146673) rotate(0 125.56567335496288 -89.51163896504204)"><path d="M-0.86 -0.98 C41.09 -30.85, 209.91 -148.78, 251.99 -178.51 M0.89 1.12 C42.63 -29.13, 209.29 -150.29, 250.9 -180.14" stroke="#1e1e1e" stroke-width="4" fill="none"></path></g><g transform="translate(305.2258041681823 701.2059805146673) rotate(0 125.56567335496288 -89.51163896504204)"><path d="M249.87 -178.52 L243.7 -166.08 L234.96 -178.66 L250.33 -180.7" stroke="none" stroke-width="0" fill="#1e1e1e" fill-rule="evenodd"></path><path d="M249.67 -180.48 C249.77 -176.7, 246.33 -173.04, 244.26 -166.35 M251.21 -180.15 C248.03 -175.75, 245.05 -171.34, 243.45 -166.56 M243.49 -167.78 C241.59 -168.37, 240.38 -171.61, 237.22 -178.52 M243.55 -166.76 C241.87 -169.88, 240.07 -172.7, 236.41 -177.93 M235.54 -176.39 C239.72 -178.36, 242.71 -177.44, 250.91 -179.93 M235.45 -177.49 C241.35 -177.82, 246.28 -179.79, 250.27 -179.62 M250.9 -180.14 C250.9 -180.14, 250.9 -180.14, 250.9 -180.14 M250.9 -180.14 C250.9 -180.14, 250.9 -180.14, 250.9 -180.14" stroke="#1e1e1e" stroke-width="4" fill="none"></path></g></g><mask></mask><g stroke-linecap="round"><g transform="translate(314.2833920036012 187.60197227334174) rotate(0 121.46771024688394 100.9843024865122)"><path d="M-0.1 1.07 C40.67 34.31, 203.77 166.89, 244.54 200.07 M-1.61 0.58 C39.1 33.95, 203.21 167.94, 244.21 201.38" stroke="#1e1e1e" stroke-width="4" fill="none"></path></g><g transform="translate(314.2833920036012 187.60197227334174) rotate(0 121.46771024688394 100.9843024865122)"><path d="M242.99 201.51 L230.9 196.14 L236.58 188.01 L243.49 200.38" stroke="none" stroke-width="0" fill="#1e1e1e" fill-rule="evenodd"></path><path d="M245.55 202.86 C239.34 201.77, 235.1 199.41, 230.52 197.22 M244.3 201.27 C239.61 200.66, 233.04 198.3, 229.31 197.01 M230.22 196.59 C232.1 194.01, 235.16 190.45, 237.79 187.7 M230.05 198 C231.56 195.11, 233.81 192.81, 237.37 187.52 M237.85 187.55 C240.07 191.6, 241.46 193.02, 244.92 201.65 M238.17 188.41 C238.51 190.74, 240.3 193.23, 243.82 200.67 M244.21 201.38 C244.21 201.38, 244.21 201.38, 244.21 201.38 M244.21 201.38 C244.21 201.38, 244.21 201.38, 244.21 201.38" stroke="#1e1e1e" stroke-width="4" fill="none"></path></g></g><mask></mask><g stroke-linecap="round"><g transform="translate(867.7777608235672 387.7778116861982) rotate(0 255.37497594282058 -139.68412723690653)"><path d="M-0.44 1.03 C22.45 -39.98, 52.43 -198.35, 137.7 -244.92 C222.97 -291.5, 449.11 -272.52, 511.19 -278.42 M1.53 0.53 C24.32 -39.81, 52.37 -196.82, 137.29 -243.64 C222.21 -290.46, 448.85 -274.37, 511.05 -280.4" stroke="#1e1e1e" stroke-width="4" fill="none"></path></g><g transform="translate(867.7777608235672 387.7778116861982) rotate(0 255.37497594282058 -139.68412723690653)"><path d="M509.19 -281.54 L498.99 -274.13 L496.24 -288.12 L509.54 -280.76" stroke="none" stroke-width="0" fill="#1e1e1e" fill-rule="evenodd"></path><path d="M512.33 -279.11 C506.04 -276.77, 503.04 -275.87, 496.09 -273.53 M510.79 -279.88 C506.71 -278.27, 502.77 -275.55, 497.85 -274.02 M497.96 -273.55 C498.1 -278.94, 497.47 -282.28, 498.18 -286.48 M497.32 -274.22 C497.98 -276.63, 497.1 -280.95, 497.22 -285.96 M496.59 -287.86 C501.99 -286.07, 505.52 -284.2, 509.75 -279.23 M497.99 -287.16 C501.17 -284.78, 503.65 -282.89, 511.12 -280.75 M511.05 -280.4 C511.05 -280.4, 511.05 -280.4, 511.05 -280.4 M511.05 -280.4 C511.05 -280.4, 511.05 -280.4, 511.05 -280.4" stroke="#1e1e1e" stroke-width="4" fill="none"></path></g></g><mask></mask><g stroke-linecap="round"><g transform="translate(928.8888041178382 468.89062934344656) rotate(0 222.77571301385774 -110.72156028949848)"><path d="M-1.12 -44.15 C28.58 -63.52, 103.58 -138.93, 178.21 -161.13 C252.84 -183.32, 401.76 -174.69, 446.67 -177.3 M0.5 -45.04 C30.58 -64.16, 106.33 -137.78, 180.56 -159.6 C254.8 -181.41, 401.26 -172.69, 445.9 -175.93" stroke="#1e1e1e" stroke-width="4" fill="none"></path></g><g transform="translate(928.8888041178382 468.89062934344656) rotate(0 222.77571301385774 -110.72156028949848)"><path d="M447.26 -175.07 L432.9 -169.58 L432.03 -180.69 L446.25 -175.47" stroke="none" stroke-width="0" fill="#1e1e1e" fill-rule="evenodd"></path><path d="M446.28 -176.78 C441.76 -174.07, 437.81 -170.88, 433.19 -169.77 M445.17 -176.24 C441.73 -174.38, 436.84 -172.25, 431.76 -169.19 M432.21 -169.96 C432.3 -173.25, 432.19 -173.67, 432.79 -181.42 M432.07 -169.53 C431.93 -173.78, 432.06 -179.34, 431.89 -182.1 M432.95 -182.55 C435.38 -181.9, 438.82 -178.8, 446.17 -176.58 M432.47 -181.47 C435.77 -180.73, 439.26 -178.61, 445.86 -175.52 M445.9 -175.93 C445.9 -175.93, 445.9 -175.93, 445.9 -175.93 M445.9 -175.93 C445.9 -175.93, 445.9 -175.93, 445.9 -175.93" stroke="#1e1e1e" stroke-width="4" fill="none"></path></g></g><mask></mask><g stroke-linecap="round"><g transform="translate(926.6666158040359 485.5555725097656) rotate(0 222.03981762404283 47.0474505543184)"><path d="M-0.54 -0.08 C27.51 14.48, 93.29 72.87, 167.48 87.96 C241.67 103.06, 398.28 89.95, 444.62 90.49 M1.37 -1.16 C29.42 12.96, 93.19 70.51, 166.96 86 C240.72 101.49, 397.99 91.28, 443.95 91.78" stroke="#1e1e1e" stroke-width="4" fill="none"></path></g><g transform="translate(926.6666158040359 485.5555725097656) rotate(0 222.03981762404283 47.0474505543184)"><path d="M442.62 91.29 L428.81 98.66 L429.22 85.47 L442.05 92.5" stroke="none" stroke-width="0" fill="#1e1e1e" fill-rule="evenodd"></path><path d="M443.86 92.79 C441.31 93.45, 437.77 96.14, 431.3 98.12 M443.79 91.88 C440.96 93.3, 437.74 95.6, 430.58 98.18 M429.83 97.32 C430.27 94.2, 431.16 90.73, 431.26 84.93 M430.36 98.4 C430.59 93.35, 429.94 88.71, 429.76 85.3 M430.13 86.02 C435.04 89.25, 439.54 89.65, 443.87 91.42 M430.89 85.15 C433.69 87.19, 435.5 87.64, 444.27 91.51 M443.95 91.78 C443.95 91.78, 443.95 91.78, 443.95 91.78 M443.95 91.78 C443.95 91.78, 443.95 91.78, 443.95 91.78" stroke="#1e1e1e" stroke-width="4" fill="none"></path></g></g><mask></mask><g stroke-linecap="round"><g transform="translate(868.8888041178382 514.4444783528652) rotate(0 255.83769869617072 121.48910474309196)"><path d="M0.64 -0.49 C33.93 36.1, 114.18 179.35, 199.43 219.81 C284.69 260.28, 460.26 238.42, 512.16 242.29 M-0.48 -1.8 C32.62 34.45, 112.79 177.32, 198.19 218.17 C283.59 259.03, 459.83 238.96, 511.94 243.31" stroke="#1e1e1e" stroke-width="4" fill="none"></path></g><g transform="translate(868.8888041178382 514.4444783528652) rotate(0 255.83769869617072 121.48910474309196)"><path d="M512.33 243.95 L499.54 249.86 L496.5 238 L511.51 242.32" stroke="none" stroke-width="0" fill="#1e1e1e" fill-rule="evenodd"></path><path d="M511.32 242.6 C509.35 246.46, 503.73 246.53, 498.63 250.69 M511.57 242.61 C507.66 244.69, 503.84 248.09, 498.26 250 M497.57 250.42 C498.88 245.79, 497.72 242.78, 498.7 236.07 M498.85 250.06 C497.81 247.23, 498.35 244.03, 498.47 237.39 M497.31 236.52 C500.89 238.84, 505.88 241.36, 510.61 242.44 M497.84 236.49 C503.8 240.05, 508.99 242.75, 511.99 243.84 M511.94 243.31 C511.94 243.31, 511.94 243.31, 511.94 243.31 M511.94 243.31 C511.94 243.31, 511.94 243.31, 511.94 243.31" stroke="#1e1e1e" stroke-width="4" fill="none"></path></g></g><mask></mask><g stroke-linecap="round" transform="translate(1407.5000508626297 75.83324432373138) rotate(0 48.33333333333326 48.333333333333485)"><path d="M55.28 1.09 C63.02 1.78, 73.24 6.26, 79.49 11.27 C85.73 16.27, 89.98 23.57, 92.75 31.11 C95.51 38.65, 97.19 48.46, 96.06 56.5 C94.93 64.55, 91.14 73.1, 85.98 79.38 C80.82 85.66, 72.49 91.38, 65.1 94.19 C57.71 97, 49.44 97.69, 41.64 96.23 C33.84 94.76, 24.77 90.59, 18.3 85.38 C11.83 80.18, 5.77 72.59, 2.81 65.01 C-0.14 57.43, -0.61 47.82, 0.58 39.9 C1.76 31.98, 4.98 23.68, 9.94 17.5 C14.9 11.31, 21.93 5.3, 30.31 2.81 C38.69 0.32, 54.5 2.21, 60.23 2.53 C65.95 2.85, 64.68 4.1, 64.68 4.74 M60.41 0.62 C68.39 1.83, 77.47 8.36, 83.16 14.23 C88.86 20.1, 92.63 28.11, 94.6 35.85 C96.56 43.58, 97 52.9, 94.93 60.63 C92.86 68.36, 87.63 76.49, 82.16 82.21 C76.68 87.93, 69.69 92.65, 62.1 94.92 C54.5 97.2, 44.45 97.81, 36.59 95.87 C28.73 93.94, 20.85 88.77, 14.96 83.33 C9.08 77.88, 3.31 70.98, 1.28 63.21 C-0.75 55.45, 1 44.89, 2.8 36.73 C4.6 28.58, 6.72 20.06, 12.08 14.3 C17.44 8.54, 27.06 4.33, 34.95 2.2 C42.84 0.06, 55.23 1.45, 59.43 1.49 C63.62 1.53, 60.39 1.73, 60.11 2.43" stroke="#1e1e1e" stroke-width="4" fill="none"></path></g><g transform="translate(1445.109681438613 102.38974989971484) rotate(0 10.546875 21.59999999999991)"><text x="10.546875" y="0" font-family="Cascadia, Segoe UI Emoji" font-size="36px" fill="#1e1e1e" text-anchor="middle" style="white-space: pre;" direction="ltr" dominant-baseline="text-before-edge">a</text></g><g stroke-linecap="round" transform="translate(1405.8333841959632 253.05545806884675) rotate(0 48.33333333333326 48.333333333333485)"><path d="M59.66 1.67 C67.11 2.91, 76.25 8.74, 82.13 14.46 C88 20.18, 92.86 28.23, 94.93 36 C97 43.77, 96.42 53.38, 94.54 61.1 C92.67 68.81, 89.16 76.75, 83.68 82.29 C78.2 87.83, 69.64 92.31, 61.68 94.34 C53.71 96.36, 43.76 96.52, 35.9 94.45 C28.04 92.39, 20.33 87.54, 14.51 81.94 C8.69 76.35, 3.26 68.55, 0.99 60.87 C-1.29 53.2, -1.16 43.48, 0.87 35.9 C2.9 28.32, 7.54 20.99, 13.16 15.4 C18.78 9.81, 26.27 4.58, 34.61 2.38 C42.96 0.18, 58.16 2.07, 63.24 2.21 C68.32 2.36, 65.37 2.42, 65.08 3.25 M35.83 2.62 C42.76 -0.01, 53.03 0.46, 60.65 2.48 C68.27 4.49, 75.77 9.09, 81.55 14.71 C87.33 20.32, 93.12 28.35, 95.32 36.16 C97.52 43.98, 96.89 53.84, 94.74 61.6 C92.6 69.36, 88.25 76.91, 82.46 82.72 C76.68 88.53, 67.61 94.41, 60.04 96.44 C52.48 98.46, 44.97 97.33, 37.08 94.89 C29.19 92.45, 18.58 87.46, 12.69 81.8 C6.8 76.15, 3.63 68.64, 1.73 60.96 C-0.18 53.29, -0.9 43.57, 1.27 35.77 C3.45 27.97, 9.14 19.9, 14.77 14.15 C20.4 8.39, 31.44 3.24, 35.07 1.23 C38.7 -0.77, 36.04 1.29, 36.57 2.12" stroke="#1e1e1e" stroke-width="4" fill="none"></path></g><g transform="translate(1443.4430147719465 279.6119636448302) rotate(0 10.546875 21.59999999999991)"><text x="10.546875" y="0" font-family="Cascadia, Segoe UI Emoji" font-size="36px" fill="#1e1e1e" text-anchor="middle" style="white-space: pre;" direction="ltr" dominant-baseline="text-before-edge">b</text></g><g stroke-linecap="round" transform="translate(1403.055369059244 525.2776972452803) rotate(0 48.33333333333326 48.333333333333485)"><path d="M51.99 0.81 C59.57 0.7, 68.16 4.7, 74.95 9.15 C81.73 13.6, 89.03 20.46, 92.69 27.5 C96.34 34.54, 97.68 43.5, 96.87 51.39 C96.07 59.28, 92.45 68.27, 87.85 74.86 C83.26 81.45, 76.62 87.42, 69.3 90.95 C61.98 94.48, 52.07 96.58, 43.93 96.07 C35.79 95.55, 27.09 92.16, 20.47 87.85 C13.84 83.54, 7.66 77.28, 4.15 70.19 C0.65 63.1, -1.38 53.49, -0.58 45.32 C0.22 37.15, 4.24 28.01, 8.98 21.15 C13.72 14.3, 20.18 7.58, 27.84 4.19 C35.49 0.8, 50.11 1.04, 54.92 0.8 C59.73 0.56, 56.76 2.02, 56.7 2.73 M63.3 3.18 C70.85 4.96, 79.9 10.91, 85.29 17.05 C90.67 23.2, 94.16 32.13, 95.61 40.03 C97.06 47.94, 96.74 56.75, 93.99 64.47 C91.25 72.2, 85.04 81.19, 79.15 86.4 C73.26 91.61, 66.68 94.6, 58.64 95.75 C50.61 96.91, 38.75 95.95, 30.93 93.33 C23.12 90.72, 16.85 86.07, 11.76 80.07 C6.67 74.07, 1.83 65.28, 0.41 57.33 C-1.01 49.39, 0.65 40.07, 3.24 32.39 C5.83 24.71, 9.87 16.6, 15.96 11.27 C22.05 5.93, 31.53 1.84, 39.78 0.4 C48.03 -1.03, 61.42 2.1, 65.46 2.66 C69.49 3.23, 64.2 3.07, 64 3.79" stroke="#1e1e1e" stroke-width="4" fill="none"></path></g><g transform="translate(1440.6649996352273 551.8342028212637) rotate(0 10.546875 21.59999999999991)"><text x="10.546875" y="0" font-family="Cascadia, Segoe UI Emoji" font-size="36px" fill="#1e1e1e" text-anchor="middle" style="white-space: pre;" direction="ltr" dominant-baseline="text-before-edge">c</text></g><g stroke-linecap="round" transform="translate(1403.0552673339832 704.1666539510115) rotate(0 48.33333333333326 48.33333333333303)"><path d="M65.08 2.85 C72.7 4.5, 80.24 10.28, 85.29 16.24 C90.35 22.2, 93.96 30.78, 95.4 38.63 C96.84 46.48, 96.67 55.7, 93.95 63.35 C91.23 70.99, 85.29 79.15, 79.08 84.49 C72.87 89.83, 64.58 93.67, 56.7 95.4 C48.81 97.12, 39.37 97.33, 31.76 94.84 C24.14 92.35, 16.05 86.72, 11 80.47 C5.94 74.23, 2.73 65.5, 1.43 57.38 C0.13 49.27, 0.59 39.34, 3.19 31.79 C5.78 24.24, 11.09 17.09, 17.03 12.09 C22.96 7.09, 29.84 2.92, 38.81 1.77 C47.78 0.62, 64.63 3.95, 70.84 5.19 C77.05 6.43, 76.44 8.61, 76.07 9.23 M55.11 1.11 C62.75 1.52, 72.14 5.39, 78.38 10.52 C84.63 15.65, 89.41 24.41, 92.61 31.87 C95.81 39.33, 98.85 47.61, 97.57 55.26 C96.28 62.9, 90.1 71.35, 84.89 77.72 C79.68 84.1, 73.62 90.44, 66.29 93.53 C58.96 96.62, 48.81 97.45, 40.9 96.25 C33 95.06, 25.25 91.42, 18.85 86.35 C12.45 81.27, 5.5 73.37, 2.5 65.8 C-0.5 58.22, -0.64 48.82, 0.86 40.9 C2.36 32.98, 6.58 24.49, 11.5 18.27 C16.43 12.04, 22.89 6.56, 30.43 3.55 C37.98 0.54, 52.82 0.3, 56.79 0.2 C60.76 0.1, 54.58 2.05, 54.24 2.96" stroke="#1e1e1e" stroke-width="4" fill="none"></path></g><g transform="translate(1440.6648979099666 730.723159526995) rotate(0 10.546875 21.59999999999991)"><text x="10.546875" y="0" font-family="Cascadia, Segoe UI Emoji" font-size="36px" fill="#1e1e1e" text-anchor="middle" style="white-space: pre;" direction="ltr" dominant-baseline="text-before-edge">d</text></g><g stroke-linecap="round" transform="translate(654.4444274902346 60.00002543131541) rotate(0 77.7777608235674 71.1111068725586)"><path d="M79.09 -0.13 C89.66 -1.1, 102.5 2.8, 112.64 7.33 C122.78 11.86, 133.03 18.94, 139.94 27.06 C146.86 35.18, 151.81 45.99, 154.13 56.05 C156.44 66.11, 156.45 77.45, 153.84 87.4 C151.24 97.35, 145.65 107.84, 138.51 115.73 C131.37 123.62, 121.13 130.25, 111 134.74 C100.86 139.22, 88.84 142.56, 77.69 142.64 C66.55 142.72, 54.35 139.93, 44.13 135.23 C33.9 130.54, 23.32 122.59, 16.34 114.46 C9.36 106.33, 4.75 96.36, 2.23 86.45 C-0.29 76.54, -1.46 64.95, 1.22 55.02 C3.9 45.1, 11.05 34.94, 18.33 26.89 C25.62 18.85, 33.65 11.08, 44.93 6.74 C56.21 2.4, 77.86 1.31, 86 0.86 C94.15 0.4, 93.98 2.82, 93.81 4.03 M98.81 1.73 C109.27 3.59, 119.88 10.76, 128.58 17.83 C137.27 24.9, 146.6 34.79, 151 44.17 C155.39 53.55, 155.74 63.76, 154.96 74.09 C154.17 84.41, 151.87 97.08, 146.3 106.1 C140.73 115.11, 130.6 122.36, 121.54 128.16 C112.47 133.96, 102.83 139.17, 91.91 140.9 C80.98 142.63, 66.99 141.12, 55.98 138.55 C44.97 135.97, 34.3 132.04, 25.84 125.47 C17.38 118.9, 9.4 108.62, 5.23 99.11 C1.05 89.61, 0.02 78.97, 0.78 68.45 C1.53 57.92, 4.5 45.29, 9.75 35.96 C14.99 26.64, 22.86 18.15, 32.24 12.51 C41.62 6.86, 54.91 3.84, 66.04 2.09 C77.16 0.35, 93.66 1.63, 98.99 2.03 C104.33 2.43, 98.35 3.32, 98.03 4.51" stroke="#1e1e1e" stroke-width="4" fill="none"></path></g><g transform="translate(700.5843812099522 109.72798641660575) rotate(0 31.640625 21.59999999999991)"><text x="31.640625" y="0" font-family="Cascadia, Segoe UI Emoji" font-size="36px" fill="#1e1e1e" text-anchor="middle" style="white-space: pre;" direction="ltr" dominant-baseline="text-before-edge">Sel</text></g><g stroke-linecap="round"><g transform="translate(723.3332824707029 206.66671752929688) rotate(0 -0.04696647003311227 82.7952454094634)"><path d="M-1.2 0.82 C-1.19 28.35, 1.06 138.06, 1.11 165.39 M0.37 0.2 C0.23 27.4, 0.55 136.69, 0.74 163.77" stroke="#1e1e1e" stroke-width="4" fill="none"></path></g><g transform="translate(723.3332824707029 206.66671752929688) rotate(0 -0.04696647003311227 82.7952454094634)"><path d="M-0.35 162.43 L-3.66 150.78 L7.62 149.21 L1.06 164.95" stroke="none" stroke-width="0" fill="#1e1e1e" fill-rule="evenodd"></path><path d="M1.76 165.15 C-0.57 157.32, -3.77 153.38, -6.54 150.04 M0.03 164.01 C-1.41 158.41, -4.01 153.49, -5.09 149.66 M-6.75 149.4 C-2.01 151.07, 0.66 150.94, 7.78 149.32 M-5.99 150.25 C-2.12 149.57, 0.22 149.76, 7.64 149.66 M8.39 148.92 C6.18 152.41, 3.05 157.82, 2.01 162.36 M6.68 150.47 C4.62 154.19, 3.65 158.5, 0.64 163.83 M0.74 163.77 C0.74 163.77, 0.74 163.77, 0.74 163.77 M0.74 163.77 C0.74 163.77, 0.74 163.77, 0.74 163.77" stroke="#1e1e1e" stroke-width="4" fill="none"></path></g></g><mask></mask><g transform="translate(1157.7777608235672 56.666717529296875) rotate(0 84.375 21.59999999999991)"><text x="0" y="0" font-family="Cascadia, Segoe UI Emoji" font-size="36px" fill="#1e1e1e" text-anchor="start" style="white-space: pre;" direction="ltr" dominant-baseline="text-before-edge">Sel = 00</text></g><g transform="translate(1157.2917175292962 228.40002543131595) rotate(0 84.375 21.59999999999991)"><text x="0" y="0" font-family="Cascadia, Segoe UI Emoji" font-size="36px" fill="#1e1e1e" text-anchor="start" style="white-space: pre;" direction="ltr" dominant-baseline="text-before-edge">Sel = 01</text></g><g transform="translate(1171.1806742350252 517.2888549804684) rotate(0 84.375 21.59999999999991)"><text x="0" y="0" font-family="Cascadia, Segoe UI Emoji" font-size="36px" fill="#1e1e1e" text-anchor="start" style="white-space: pre;" direction="ltr" dominant-baseline="text-before-edge">Sel = 10</text></g><g transform="translate(1164.5140075683582 700.6221883138005) rotate(0 84.375 21.59999999999991)"><text x="0" y="0" font-family="Cascadia, Segoe UI Emoji" font-size="36px" fill="#1e1e1e" text-anchor="start" style="white-space: pre;" direction="ltr" dominant-baseline="text-before-edge">Sel = 11</text></g><g stroke-linecap="round" transform="translate(1393.3333841959632 10) rotate(0 155.55572509765625 420)"><path d="M32 0 M32 0 C94.72 -0.64, 158.65 -0.35, 279.11 0 M32 0 C115.19 0.95, 198.09 0.95, 279.11 0 M279.11 0 C299.63 1.24, 309.49 9.31, 311.11 32 M279.11 0 C298.97 0.76, 311.58 9.32, 311.11 32 M311.11 32 C313.24 225.68, 313.15 420.37, 311.11 808 M311.11 32 C309.75 331.95, 309.44 632.09, 311.11 808 M311.11 808 C310.78 830.96, 299.31 841.95, 279.11 840 M311.11 808 C310.79 828.62, 298.98 841.27, 279.11 840 M279.11 840 C219.14 837.72, 158.23 839.62, 32 840 M279.11 840 C186.15 839.41, 92.83 840.24, 32 840 M32 840 C12.18 841.64, 1.25 831.26, 0 808 M32 840 C8.47 837.93, -0.96 830.39, 0 808 M0 808 C1.62 527.51, 2.59 248, 0 32 M0 808 C2.87 526.1, 3.07 244.15, 0 32 M0 32 C-0.55 8.8, 9.75 1.06, 32 0 M0 32 C0.35 11.94, 9.85 -0.41, 32 0" stroke="#1e1e1e" stroke-width="4" fill="none"></path></g><g transform="translate(1472.6844350393133 369.41541608966054) rotate(359.2943558332632 89.54182110175134 61.12721653879544)"><text x="0" y="0" font-family="Cascadia, Segoe UI Emoji" font-size="101.87869423132582px" fill="#1e1e1e" text-anchor="start" style="white-space: pre;" direction="ltr" dominant-baseline="text-before-edge">OUT</text></g><g stroke-linecap="round" transform="translate(10 61.11114501953125) rotate(0 161.111094156901 380.5555725097656)"><path d="M32 0 M32 0 C88.34 -0.12, 145.32 -1.08, 290.22 0 M32 0 C132.58 1.19, 234.1 2.2, 290.22 0 M290.22 0 C312.65 -0.56, 322.42 12.23, 322.22 32 M290.22 0 C310.2 -1.92, 322.21 12.09, 322.22 32 M322.22 32 C322.64 260.01, 321.52 487.27, 322.22 729.11 M322.22 32 C320.46 188.62, 320.14 345.52, 322.22 729.11 M322.22 729.11 C320.28 749.22, 313.24 760.22, 290.22 761.11 M322.22 729.11 C324.08 751.08, 312.3 759.68, 290.22 761.11 M290.22 761.11 C232.7 761.52, 172.86 763.99, 32 761.11 M290.22 761.11 C221.28 760.87, 150.15 761.06, 32 761.11 M32 761.11 C8.9 762.59, -1.65 748.83, 0 729.11 M32 761.11 C11.79 759.68, -1.08 748.2, 0 729.11 M0 729.11 C0.17 463.78, 0.6 197.91, 0 32 M0 729.11 C-1.33 493.66, -1.17 258.17, 0 32 M0 32 C-0.48 12.18, 9.06 -0.51, 32 0 M0 32 C1.77 9.59, 8.86 -1.06, 32 0" stroke="#1e1e1e" stroke-width="4" fill="none"></path></g><g transform="translate(46.57148615668257 386.46272041919656) rotate(359.2943558332632 59.689453125 61.12721653879544)"><text x="0" y="0" font-family="Cascadia, Segoe UI Emoji" font-size="101.87869423132582px" fill="#1e1e1e" text-anchor="start" style="white-space: pre;" direction="ltr" dominant-baseline="text-before-edge">IN</text></g></svg>