<svg version="1.1" xmlns="http://www.w3.org/2000/svg" viewBox="0 0 1838.8890584309888 819.3334859212241" width="5516.667175292967" height="2458.0004577636723">
  <!-- svg-source:excalidraw -->
  
  <defs>
    <style class="style-fonts">
      @font-face {
        font-family: "Virgil";
        src: url("https://excalidraw.com/Virgil.woff2");
      }
      @font-face {
        font-family: "Cascadia";
        src: url("https://excalidraw.com/Cascadia.woff2");
      }
    </style>
    
  </defs>
  <g stroke-linecap="round" transform="translate(242.22234090169354 18.889058430989735) rotate(0 85 57.5)"><path d="M66.87 1.35 C78.24 -1.15, 93.98 -0.09, 106.1 1.74 C118.21 3.57, 130.18 7.09, 139.57 12.35 C148.96 17.62, 157.35 25.83, 162.46 33.35 C167.56 40.87, 170.54 49.06, 170.2 57.49 C169.86 65.92, 166.08 76.48, 160.42 83.93 C154.76 91.38, 145.83 97.16, 136.24 102.21 C126.66 107.25, 114.98 112.25, 102.92 114.2 C90.86 116.16, 75.97 116.14, 63.9 113.93 C51.83 111.73, 39.91 106.39, 30.48 100.97 C21.05 95.55, 12.39 88.83, 7.33 81.41 C2.28 73.99, -0.26 64.58, 0.15 56.44 C0.56 48.29, 4.32 40.03, 9.77 32.54 C15.22 25.05, 20.57 17.05, 32.85 11.5 C45.13 5.94, 72.21 0.7, 83.43 -0.81 C94.65 -2.33, 100.13 1.31, 100.18 2.4 M50.13 5.68 C60.33 1.77, 75.78 -0.8, 88.27 -0.63 C100.76 -0.46, 114.33 2.72, 125.07 6.68 C135.81 10.63, 145.48 16.39, 152.69 23.08 C159.91 29.77, 165.81 38.66, 168.36 46.8 C170.91 54.95, 170.83 64.09, 167.97 71.94 C165.12 79.79, 159.21 87.74, 151.23 93.89 C143.24 100.03, 131.52 105.12, 120.05 108.83 C108.59 112.55, 94.66 116.22, 82.44 116.18 C70.23 116.14, 57.87 112.67, 46.76 108.6 C35.65 104.53, 23.28 98.61, 15.79 91.77 C8.3 84.94, 3.95 75.55, 1.8 67.6 C-0.35 59.66, 0.04 51.87, 2.89 44.09 C5.75 36.31, 11.07 27.44, 18.93 20.9 C26.79 14.37, 44.8 7.59, 50.06 4.88 C55.31 2.16, 49.66 3.57, 50.47 4.63" stroke="#1e1e1e" stroke-width="4" fill="none"></path></g><g transform="translate(274.3838895008371 54.6304185127633) rotate(0 52.734375 21.59999999999991)"><text x="52.734375" y="0" font-family="Cascadia, Segoe UI Emoji" font-size="36px" fill="#1e1e1e" text-anchor="middle" style="white-space: pre;" direction="ltr" dominant-baseline="text-before-edge">in[1]</text></g><g stroke-linecap="round" transform="translate(483.88910929362055 19.7222900390625) rotate(0 85 57.5)"><path d="M118.27 4.81 C129.54 7.35, 140.84 14.43, 149.1 20.68 C157.37 26.94, 164.47 34.51, 167.85 42.34 C171.23 50.18, 171.86 59.52, 169.39 67.7 C166.91 75.88, 160.34 84.56, 153 91.44 C145.67 98.32, 136.04 105.14, 125.39 108.98 C114.75 112.82, 101.61 114.23, 89.11 114.45 C76.61 114.68, 61.79 113.62, 50.41 110.31 C39.03 107, 28.78 101.02, 20.84 94.6 C12.9 88.19, 6.04 79.7, 2.77 71.8 C-0.5 63.89, -1.01 55.32, 1.2 47.18 C3.42 39.03, 8.74 29.77, 16.08 22.95 C23.41 16.12, 34.24 10.2, 45.2 6.24 C56.17 2.29, 68.39 -1.03, 81.87 -0.79 C95.36 -0.54, 117.78 5.73, 126.12 7.73 C134.46 9.73, 132.71 10.43, 131.94 11.2 M88.93 -0.57 C100.69 -1.38, 114.83 1.83, 125.46 5.92 C136.09 10.01, 145.73 17.23, 152.72 23.97 C159.71 30.71, 164.88 38.07, 167.41 46.36 C169.94 54.65, 170.75 65.44, 167.91 73.71 C165.08 81.98, 158.51 89.95, 150.42 95.99 C142.32 102.04, 130.72 106.7, 119.34 109.98 C107.96 113.26, 94.26 115.77, 82.15 115.66 C70.03 115.54, 57.33 113.38, 46.65 109.3 C35.96 105.22, 25.49 98.27, 18.05 91.19 C10.61 84.11, 4.68 75.05, 2.02 66.81 C-0.65 58.57, -1.01 49.68, 2.05 41.75 C5.11 33.82, 12.3 25.59, 20.39 19.23 C28.48 12.88, 39.2 6.66, 50.57 3.64 C61.94 0.62, 82.52 1.72, 88.6 1.12 C94.69 0.52, 87.25 -0.79, 87.09 0.02" stroke="#1e1e1e" stroke-width="4" fill="none"></path></g><g transform="translate(516.0506578927639 55.463650120836064) rotate(0 52.734375 21.59999999999991)"><text x="52.734375" y="0" font-family="Cascadia, Segoe UI Emoji" font-size="36px" fill="#1e1e1e" text-anchor="middle" style="white-space: pre;" direction="ltr" dominant-baseline="text-before-edge">in[2]</text></g><g stroke-linecap="round" transform="translate(961.1113484700522 12.500101725260265) rotate(0 85 57.5)"><path d="M57.27 2.42 C67.99 -0.98, 82.67 -1.5, 94.68 -0.34 C106.69 0.83, 119.03 4.78, 129.34 9.41 C139.64 14.04, 149.66 20.52, 156.49 27.46 C163.33 34.4, 168.75 42.86, 170.34 51.04 C171.93 59.21, 170.23 68.79, 166.04 76.51 C161.86 84.22, 154.1 91.4, 145.24 97.32 C136.37 103.24, 124.5 109.22, 112.86 112.01 C101.21 114.8, 87.43 115.16, 75.37 114.05 C63.3 112.95, 50.92 109.81, 40.48 105.39 C30.04 100.98, 19.3 94.4, 12.71 87.56 C6.12 80.72, 2.32 72.59, 0.94 64.34 C-0.44 56.09, 0.38 45.84, 4.43 38.06 C8.47 30.28, 14.35 23.93, 25.22 17.66 C36.1 11.39, 60.17 3.34, 69.68 0.44 C79.18 -2.47, 82.18 -0.9, 82.25 0.23 M44.86 7.76 C55 3.3, 70.53 0.43, 83.15 -0.3 C95.78 -1.02, 109.32 0.05, 120.59 3.41 C131.86 6.78, 142.93 13.41, 150.78 19.9 C158.63 26.38, 164.76 34.46, 167.69 42.33 C170.61 50.21, 170.95 59.14, 168.32 67.17 C165.69 75.2, 159.22 83.76, 151.92 90.5 C144.63 97.24, 135.21 103.46, 124.54 107.58 C113.87 111.71, 100.02 114.67, 87.9 115.26 C75.78 115.84, 63.26 114.44, 51.81 111.08 C40.36 107.72, 27.14 101.76, 19.21 95.11 C11.27 88.46, 7 79.06, 4.2 71.19 C1.4 63.32, 0.48 55.75, 2.39 47.89 C4.3 40.04, 8.62 30.82, 15.67 24.07 C22.72 17.33, 39.6 10.17, 44.67 7.42 C49.75 4.68, 45.14 6.84, 46.1 7.61" stroke="#1e1e1e" stroke-width="4" fill="none"></path></g><g transform="translate(993.2728970691956 48.24146180703383) rotate(0 52.734375 21.59999999999991)"><text x="52.734375" y="0" font-family="Cascadia, Segoe UI Emoji" font-size="36px" fill="#1e1e1e" text-anchor="middle" style="white-space: pre;" direction="ltr" dominant-baseline="text-before-edge">in[4]</text></g><g stroke-linecap="round" transform="translate(723.8890075683598 19.166768391927235) rotate(0 85 57.5)"><path d="M89.4 0.36 C101.09 -0.03, 114.93 2.74, 125.85 6.58 C136.76 10.41, 147.8 16.6, 154.89 23.38 C161.99 30.16, 166.37 38.86, 168.4 47.25 C170.43 55.64, 170.46 65.71, 167.07 73.71 C163.69 81.72, 156.27 88.99, 148.09 95.27 C139.9 101.54, 129.17 108.19, 117.97 111.37 C106.77 114.54, 93.14 115.07, 80.88 114.32 C68.62 113.57, 55.38 110.7, 44.42 106.86 C33.47 103.03, 22.54 98.07, 15.17 91.32 C7.81 84.57, 2.23 74.69, 0.23 66.34 C-1.77 57.99, -0.53 48.95, 3.16 41.22 C6.85 33.49, 14.19 25.96, 22.37 19.98 C30.56 14, 39.13 8.35, 52.24 5.36 C65.36 2.36, 90.92 2.09, 101.09 2.01 C111.26 1.93, 113.43 4.11, 113.26 4.88 M54.04 3.14 C64.66 -0.29, 78.95 -0.46, 91.37 0.46 C103.8 1.38, 118.12 4.52, 128.57 8.67 C139.01 12.82, 147.07 18.83, 154.05 25.37 C161.02 31.92, 168.24 39.55, 170.41 47.94 C172.58 56.33, 171.1 67.47, 167.06 75.73 C163.02 83.98, 154.83 91.46, 146.18 97.48 C137.53 103.51, 126.47 108.98, 115.17 111.87 C103.88 114.75, 90.35 115.52, 78.4 114.8 C66.44 114.08, 53.97 111.79, 43.43 107.55 C32.88 103.31, 22.08 96.51, 15.11 89.36 C8.14 82.21, 3.66 72.74, 1.63 64.66 C-0.4 56.58, -0.74 48.82, 2.93 40.88 C6.6 32.94, 15.19 22.98, 23.67 17.03 C32.16 11.07, 48.59 7.02, 53.84 5.16 C59.1 3.3, 54.76 4.97, 55.22 5.88" stroke="#1e1e1e" stroke-width="4" fill="none"></path></g><g transform="translate(756.0505561675031 54.9081284737008) rotate(0 52.734375 21.59999999999991)"><text x="52.734375" y="0" font-family="Cascadia, Segoe UI Emoji" font-size="36px" fill="#1e1e1e" text-anchor="middle" style="white-space: pre;" direction="ltr" dominant-baseline="text-before-edge">in[3]</text></g><g stroke-linecap="round" transform="translate(10 14.16676839192769) rotate(0 85 57.5)"><path d="M79.67 0.62 C91.34 -0.94, 106.27 0.35, 117.61 3.56 C128.95 6.76, 139.51 13.47, 147.71 19.86 C155.92 26.26, 163.38 34.08, 166.84 41.93 C170.3 49.79, 170.54 58.82, 168.48 66.99 C166.42 75.16, 161.54 84.04, 154.48 90.96 C147.41 97.87, 136.76 104.5, 126.11 108.48 C115.46 112.47, 102.79 114.32, 90.57 114.84 C78.35 115.37, 64.38 114.76, 52.81 111.62 C41.24 108.48, 29.49 102.34, 21.16 96.01 C12.84 89.67, 6.08 81.46, 2.85 73.61 C-0.38 65.76, -0.22 56.95, 1.78 48.91 C3.78 40.87, 8 32.28, 14.82 25.36 C21.64 18.43, 31.53 11.54, 42.7 7.38 C53.88 3.22, 74.94 1.56, 81.89 0.4 C88.85 -0.77, 84.21 -0.58, 84.45 0.39 M116.59 2.79 C128.14 4.72, 138.58 10.68, 146.82 17.01 C155.06 23.33, 162.47 32.73, 166.04 40.73 C169.6 48.73, 169.71 56.64, 168.19 65.02 C166.68 73.4, 163.44 83.78, 156.95 91 C150.46 98.23, 140.19 104.24, 129.26 108.37 C118.33 112.5, 104.04 115.34, 91.37 115.8 C78.7 116.27, 64.7 114.42, 53.24 111.17 C41.77 107.92, 30.63 102.27, 22.58 96.31 C14.53 90.35, 8.55 83.14, 4.94 75.41 C1.33 67.69, -0.41 58.3, 0.94 49.95 C2.29 41.59, 6.37 32.23, 13.03 25.27 C19.69 18.31, 30.16 12.16, 40.9 8.19 C51.63 4.21, 65.19 2.04, 77.45 1.43 C89.71 0.83, 107.96 3.99, 114.46 4.56 C120.96 5.13, 116.85 4.27, 116.45 4.87" stroke="#1e1e1e" stroke-width="4" fill="none"></path></g><g transform="translate(42.16154859914354 49.908128473701254) rotate(0 52.734375 21.59999999999991)"><text x="52.734375" y="0" font-family="Cascadia, Segoe UI Emoji" font-size="36px" fill="#1e1e1e" text-anchor="middle" style="white-space: pre;" direction="ltr" dominant-baseline="text-before-edge">in[0]</text></g><g stroke-linecap="round" transform="translate(1179.4446818033844 14.99989827473928) rotate(0 85 57.5)"><path d="M106.03 2.78 C117.62 4.16, 130.88 9.05, 140.25 14.31 C149.61 19.56, 157.31 26.73, 162.24 34.29 C167.17 41.85, 170.19 51.25, 169.82 59.67 C169.45 68.08, 165.6 77.5, 160.01 84.8 C154.42 92.09, 146.08 98.45, 136.3 103.45 C126.52 108.45, 113.57 113.18, 101.32 114.78 C89.08 116.39, 74.82 115.35, 62.84 113.09 C50.86 110.84, 38.58 106.49, 29.45 101.24 C20.31 95.99, 13.02 89.04, 8.02 81.61 C3.03 74.18, -0.66 65.07, -0.53 56.65 C-0.39 48.22, 3.08 38.53, 8.81 31.07 C14.54 23.61, 23.88 16.99, 33.85 11.86 C43.83 6.74, 54.99 1.62, 68.64 0.33 C82.29 -0.97, 106.73 3.12, 115.76 4.08 C124.79 5.05, 123.56 5.2, 122.84 6.13 M54.98 4.15 C65.33 0.63, 79.09 -1.42, 91.59 -0.54 C104.09 0.35, 119.03 4.87, 129.97 9.46 C140.92 14.04, 150.79 20.11, 157.26 26.98 C163.73 33.86, 167.55 42.66, 168.8 50.7 C170.05 58.74, 168.54 67.57, 164.76 75.23 C160.97 82.9, 154.23 90.54, 146.1 96.67 C137.98 102.79, 127.43 108.85, 116 111.99 C104.57 115.13, 90.2 116.36, 77.54 115.5 C64.87 114.64, 50.78 111.14, 40 106.82 C29.23 102.5, 19.56 96.28, 12.89 89.57 C6.23 82.86, 1.68 74.72, 0.03 66.54 C-1.63 58.36, -1.2 48.63, 2.94 40.5 C7.09 32.36, 16.31 24.05, 24.91 17.74 C33.5 11.43, 49.49 4.63, 54.52 2.63 C59.55 0.63, 54.63 4.82, 55.11 5.72" stroke="#1e1e1e" stroke-width="4" fill="none"></path></g><g transform="translate(1211.6062304025277 50.741258356512844) rotate(0 52.734375 21.59999999999991)"><text x="52.734375" y="0" font-family="Cascadia, Segoe UI Emoji" font-size="36px" fill="#1e1e1e" text-anchor="middle" style="white-space: pre;" direction="ltr" dominant-baseline="text-before-edge">in[5]</text></g><g stroke-linecap="round" transform="translate(1658.8890584309888 10) rotate(0 85 57.5)"><path d="M122.88 6.36 C133.81 9.11, 144.8 16.25, 152.28 22.95 C159.76 29.65, 165.17 38.51, 167.76 46.57 C170.34 54.62, 170.71 63.2, 167.8 71.28 C164.9 79.36, 158.36 88.64, 150.34 95.04 C142.31 101.45, 130.92 106.39, 119.67 109.69 C108.41 113, 94.87 114.88, 82.82 114.85 C70.77 114.83, 58.35 113.12, 47.38 109.54 C36.41 105.96, 24.74 100.07, 17.02 93.37 C9.3 86.66, 3.51 77.52, 1.06 69.3 C-1.38 61.08, -0.74 52.24, 2.35 44.04 C5.45 35.83, 11.6 26.46, 19.63 20.07 C27.66 13.67, 39.25 9.18, 50.53 5.69 C61.81 2.19, 74.58 -1.33, 87.3 -0.9 C100.03 -0.48, 119.85 6.4, 126.86 8.21 C133.87 10.03, 130.12 9.26, 129.34 9.98 M99.43 2.03 C111.55 2.71, 124.68 6.68, 134.5 11.33 C144.32 15.97, 152.65 22.89, 158.34 29.91 C164.04 36.93, 167.79 45.39, 168.67 53.44 C169.54 61.48, 167.78 70.34, 163.61 78.17 C159.43 86.01, 152.6 94.63, 143.63 100.47 C134.67 106.31, 122.01 110.93, 109.83 113.23 C97.64 115.52, 82.91 115.58, 70.55 114.25 C58.19 112.92, 45.66 109.72, 35.65 105.23 C25.64 100.74, 16.59 94.48, 10.48 87.33 C4.38 80.17, -0.45 70.81, -0.97 62.29 C-1.48 53.78, 2.76 44.26, 7.4 36.24 C12.05 28.21, 18.17 19.62, 26.89 14.15 C35.61 8.69, 47.97 5.87, 59.7 3.45 C71.44 1.03, 91.12 -0.3, 97.31 -0.39 C103.49 -0.48, 97.03 1.88, 96.79 2.89" stroke="#1e1e1e" stroke-width="4" fill="none"></path></g><g transform="translate(1691.0506070301321 45.741360081773564) rotate(0 52.734375 21.59999999999991)"><text x="52.734375" y="0" font-family="Cascadia, Segoe UI Emoji" font-size="36px" fill="#1e1e1e" text-anchor="middle" style="white-space: pre;" direction="ltr" dominant-baseline="text-before-edge">in[7]</text></g><g stroke-linecap="round" transform="translate(1419.4445800781236 14.44437662760447) rotate(0 85 57.5)"><path d="M92.8 1.1 C104.62 0.92, 118.87 3.99, 129.43 8.31 C139.99 12.64, 149.64 20.08, 156.15 27.05 C162.67 34.02, 167.03 42.06, 168.51 50.14 C169.99 58.22, 168.67 67.52, 165.03 75.54 C161.39 83.55, 155.22 92.11, 146.67 98.24 C138.11 104.38, 125.49 109.58, 113.72 112.33 C101.94 115.08, 88.19 115.66, 76.02 114.77 C63.86 113.88, 51.1 111.45, 40.73 107 C30.36 102.55, 20.32 95.02, 13.81 88.06 C7.3 81.1, 3.13 73.51, 1.68 65.24 C0.23 56.97, 1.43 46.27, 5.09 38.41 C8.76 30.56, 15.35 23.92, 23.67 18.09 C31.98 12.25, 42.46 6.27, 55 3.39 C67.54 0.51, 90.42 1.01, 98.91 0.83 C107.4 0.64, 106.12 1.18, 105.93 2.29 M121.7 6.76 C132.35 9.23, 142.86 15.56, 150.5 21.82 C158.14 28.09, 164.46 36.14, 167.52 44.36 C170.57 52.58, 171.54 62.84, 168.84 71.15 C166.15 79.46, 159.46 87.85, 151.34 94.21 C143.23 100.57, 131.46 105.78, 120.15 109.3 C108.85 112.82, 95.69 115.14, 83.51 115.33 C71.34 115.53, 58.18 114.05, 47.13 110.48 C36.08 106.91, 24.47 100.65, 17.2 93.91 C9.93 87.17, 6.08 78.46, 3.49 70.05 C0.91 61.64, -0.77 51.4, 1.68 43.47 C4.13 35.54, 10.51 28.95, 18.18 22.47 C25.85 15.98, 36.67 8.12, 47.7 4.56 C58.73 0.99, 72.08 0.99, 84.35 1.09 C96.62 1.18, 115.28 4.01, 121.32 5.1 C127.35 6.19, 121.21 6.74, 120.57 7.63" stroke="#1e1e1e" stroke-width="4" fill="none"></path></g><g transform="translate(1451.606128677267 50.185736709378034) rotate(0 52.734375 21.59999999999991)"><text x="52.734375" y="0" font-family="Cascadia, Segoe UI Emoji" font-size="36px" fill="#1e1e1e" text-anchor="middle" style="white-space: pre;" direction="ltr" dominant-baseline="text-before-edge">in[6]</text></g><g stroke-linecap="round"><g transform="translate(92.22234090169354 143.3334350585942) rotate(0 41.85483326014594 69.35936407681857)"><path d="M-0.21 1.02 C13.85 23.75, 71.27 114.25, 85.48 136.67 M-1.77 0.51 C12.12 23.41, 70.68 115.58, 85.08 138.21" stroke="#1e1e1e" stroke-width="4" fill="none"></path></g><g transform="translate(92.22234090169354 143.3334350585942) rotate(0 41.85483326014594 69.35936407681857)"><path d="M85.62 139.32 L70.81 131.84 L84.09 122.46 L84.05 136.49" stroke="none" stroke-width="0" fill="#1e1e1e" fill-rule="evenodd"></path><path d="M86.35 139.51 C80.07 135.78, 73.66 132.43, 73.47 130.62 M85.14 138.95 C80.89 135.43, 77.09 132.85, 71.86 130.04 M71.51 131.28 C74.03 128.15, 78.08 128.05, 83.84 123.12 M71.94 129.83 C75.28 128.54, 79.54 126.12, 83.25 123.57 M83.81 123.57 C83.93 127.18, 84.49 134.41, 84.23 138.62 M82.88 123.08 C83.19 126.77, 84.26 131.06, 84.89 138.53 M85.08 138.21 C85.08 138.21, 85.08 138.21, 85.08 138.21 M85.08 138.21 C85.08 138.21, 85.08 138.21, 85.08 138.21" stroke="#1e1e1e" stroke-width="4" fill="none"></path></g></g><mask></mask><g stroke-linecap="round"><g transform="translate(316.66681925455805 144.44458007812545) rotate(0 -57.55296299816723 68.32816185292154)"><path d="M-1.02 0.25 C-19.95 22.81, -95.7 113.08, -114.68 135.71 M0.64 -0.67 C-18.37 22.09, -96.33 114.89, -115.75 137.32" stroke="#1e1e1e" stroke-width="4" fill="none"></path></g><g transform="translate(316.66681925455805 144.44458007812545) rotate(0 -57.55296299816723 68.32816185292154)"><path d="M-116.1 135.87 L-113.49 123.75 L-102.35 130.44 L-116.21 137.79" stroke="none" stroke-width="0" fill="#1e1e1e" fill-rule="evenodd"></path><path d="M-115.44 137.03 C-114.77 133.81, -113.55 132.2, -112.5 124.2 M-115.42 137.85 C-114.21 134.7, -114.55 130.66, -111.33 122.59 M-111.17 123.78 C-108.92 124.43, -105.81 128.9, -103.27 130.34 M-111.37 123.48 C-109.94 125.2, -106.76 127.36, -102.26 130.72 M-102.51 129.66 C-106.92 133.41, -112.77 136.48, -116.28 136.05 M-101.73 130.61 C-105.67 133.01, -108.84 134.08, -115.49 137.8 M-115.75 137.32 C-115.75 137.32, -115.75 137.32, -115.75 137.32 M-115.75 137.32 C-115.75 137.32, -115.75 137.32, -115.75 137.32" stroke="#1e1e1e" stroke-width="4" fill="none"></path></g></g><mask></mask><g stroke-linecap="round" transform="translate(98.88900756836028 288.88900756835983) rotate(0 97.77776082356763 52.77778625488281)"><path d="M104.4 -0.31 C117.1 -0.69, 130.78 2.99, 142.46 6.5 C154.15 10, 166.16 15.35, 174.52 20.74 C182.88 26.13, 189.5 32.2, 192.63 38.83 C195.75 45.46, 195.55 53.24, 193.27 60.51 C190.99 67.79, 185.96 76.24, 178.94 82.5 C171.91 88.76, 162.13 94.36, 151.14 98.07 C140.15 101.78, 126.29 103.81, 112.99 104.75 C99.7 105.69, 84.08 105.66, 71.36 103.71 C58.64 101.76, 46.78 97.54, 36.68 93.03 C26.59 88.53, 16.78 82.99, 10.8 76.67 C4.83 70.36, 1.4 62.25, 0.86 55.14 C0.31 48.03, 2.72 40.49, 7.53 34.01 C12.35 27.52, 20.36 21.48, 29.75 16.25 C39.13 11.02, 50.81 5.28, 63.85 2.62 C76.88 -0.03, 99.86 0.36, 107.95 0.31 C116.05 0.26, 112.63 1.49, 112.44 2.32 M94.81 -0.51 C107.05 -1.53, 120.57 2.26, 132.76 4.76 C144.95 7.26, 158.56 9.71, 167.94 14.5 C177.32 19.3, 184.55 26.49, 189.03 33.54 C193.5 40.6, 195.58 49.51, 194.78 56.83 C193.98 64.16, 190.31 71.14, 184.24 77.52 C178.17 83.89, 168.87 90.91, 158.37 95.07 C147.86 99.23, 134.17 100.62, 121.22 102.45 C108.28 104.29, 93.75 106.89, 80.7 106.09 C67.65 105.29, 53.78 102.08, 42.91 97.68 C32.04 93.28, 22.32 85.86, 15.5 79.69 C8.67 73.52, 4.16 67.58, 1.98 60.67 C-0.2 53.75, -1.17 45.33, 2.42 38.2 C6.01 31.06, 14.55 23.38, 23.5 17.85 C32.46 12.31, 44.14 8.01, 56.13 4.98 C68.12 1.96, 89.07 0.32, 95.44 -0.31 C101.81 -0.95, 94.32 0.14, 94.35 1.18" stroke="#1e1e1e" stroke-width="4" fill="none"></path></g><g transform="translate(133.24620066434682 320.24726326640075) rotate(0 63.28125 21.59999999999991)"><text x="63.28125" y="0" font-family="Cascadia, Segoe UI Emoji" font-size="36px" fill="#1e1e1e" text-anchor="middle" style="white-space: pre;" direction="ltr" dominant-baseline="text-before-edge">out[1]</text></g><g stroke-linecap="round"><g transform="translate(592.232591093149 148.11063254991404) rotate(0 41.2484076457888 68.1739852487699)"><path d="M-0.19 -0.25 C13.93 22.66, 70.01 113.71, 84.25 136.39 M-1.75 -1.43 C12.23 21.76, 68.76 114.76, 83.2 137.78" stroke="#1e1e1e" stroke-width="4" fill="none"></path></g><g transform="translate(592.232591093149 148.11063254991404) rotate(0 41.2484076457888 68.1739852487699)"><path d="M85.2 137.58 L69.95 128.26 L82.25 122.56 L81.57 139.14" stroke="none" stroke-width="0" fill="#1e1e1e" fill-rule="evenodd"></path><path d="M82.89 137.53 C79.67 136.6, 75.67 132.73, 72.01 130.68 M83.02 138.08 C77.93 135.06, 74.01 131.35, 71.42 130.23 M69.82 128.67 C72.9 128.8, 74.57 126.11, 81.5 122.22 M71.05 129.58 C74.46 126.66, 78.33 125.04, 81.08 122.36 M81.7 123.67 C83.1 125.46, 82.73 130.66, 82.72 138.03 M81.82 123.51 C81.27 125.9, 82.1 129.65, 82.94 137.35 M83.2 137.78 C83.2 137.78, 83.2 137.78, 83.2 137.78 M83.2 137.78 C83.2 137.78, 83.2 137.78, 83.2 137.78" stroke="#1e1e1e" stroke-width="4" fill="none"></path></g></g><mask></mask><g stroke-linecap="round"><g transform="translate(816.6770694460133 149.2217775694453) rotate(0 -57.19006104944424 67.14148665067114)"><path d="M-0.19 -0.28 C-19.1 22.21, -94.51 111.86, -113.65 134.68 M-1.75 -1.47 C-20.74 21.16, -95.13 113.04, -114.19 135.76" stroke="#1e1e1e" stroke-width="4" fill="none"></path></g><g transform="translate(816.6770694460133 149.2217775694453) rotate(0 -57.19006104944424 67.14148665067114)"><path d="M-114.91 134.5 L-109.66 120.91 L-102.29 130.65 L-113.97 134.96" stroke="none" stroke-width="0" fill="#1e1e1e" fill-rule="evenodd"></path><path d="M-114.54 136.75 C-114.19 130.91, -110.7 128.67, -109.63 122.66 M-114.93 135.9 C-113.06 130, -110.77 126.23, -111.05 121.65 M-110.55 122.05 C-107.62 123.91, -103.1 126.7, -99.89 129.69 M-110.53 120.67 C-108.39 123.18, -106.56 124.19, -100.95 128.92 M-99.38 128.09 C-104.87 131.83, -110.52 134.11, -115.01 136.11 M-101.31 128.67 C-105.54 131.11, -110.21 133.44, -114.3 135.09 M-114.19 135.76 C-114.19 135.76, -114.19 135.76, -114.19 135.76 M-114.19 135.76 C-114.19 135.76, -114.19 135.76, -114.19 135.76" stroke="#1e1e1e" stroke-width="4" fill="none"></path></g></g><mask></mask><g stroke-linecap="round" transform="translate(598.8992577598156 293.66620505967967) rotate(0 97.77776082356763 52.77778625488281)"><path d="M74.7 2.52 C86.5 -0.07, 102.27 -0.36, 115.31 0.56 C128.34 1.48, 141.96 4.04, 152.89 8.04 C163.83 12.03, 174.09 18.12, 180.9 24.53 C187.72 30.93, 191.79 39.44, 193.76 46.45 C195.73 53.45, 196.13 59.7, 192.7 66.54 C189.28 73.38, 182.01 81.98, 173.22 87.48 C164.42 92.98, 151.96 96.43, 139.93 99.55 C127.91 102.66, 114.32 105.87, 101.08 106.17 C87.83 106.48, 72.75 104.25, 60.48 101.38 C48.21 98.5, 36.44 93.95, 27.44 88.91 C18.44 83.87, 11.16 77.67, 6.49 71.14 C1.82 64.6, -1.44 56.89, -0.6 49.68 C0.24 42.46, 5.32 34.29, 11.54 27.85 C17.77 21.41, 25.54 15.58, 36.72 11.02 C47.91 6.45, 71.1 2.08, 78.65 0.45 C86.19 -1.19, 81.81 0.19, 81.98 1.23 M104.17 0.63 C116.74 0.06, 132.68 2.7, 144.58 5.9 C156.48 9.09, 167.45 13.92, 175.56 19.78 C183.66 25.65, 190.01 33.77, 193.19 41.08 C196.37 48.39, 197.31 56.9, 194.63 63.62 C191.95 70.35, 184.8 75.89, 177.1 81.41 C169.4 86.92, 159.6 92.91, 148.43 96.72 C137.26 100.52, 123.2 103.36, 110.1 104.25 C97.01 105.14, 82.7 103.89, 69.86 102.07 C57.02 100.24, 43.21 97.71, 33.07 93.3 C22.92 88.89, 14.63 82.1, 8.98 75.62 C3.34 69.14, -0.53 61.72, -0.78 54.41 C-1.03 47.09, 2.05 38.6, 7.48 31.74 C12.9 24.89, 21.99 18.05, 31.77 13.26 C41.55 8.48, 53.8 4.99, 66.15 3.02 C78.5 1.05, 99.43 1.72, 105.88 1.44 C112.32 1.15, 105.27 0.57, 104.83 1.3" stroke="#1e1e1e" stroke-width="4" fill="none"></path></g><g transform="translate(633.2564508558021 325.0244607577206) rotate(0 63.28125 21.59999999999991)"><text x="63.28125" y="0" font-family="Cascadia, Segoe UI Emoji" font-size="36px" fill="#1e1e1e" text-anchor="middle" style="white-space: pre;" direction="ltr" dominant-baseline="text-before-edge">out[2]</text></g><g stroke-linecap="round"><g transform="translate(1028.899359485075 156.44396588324662) rotate(0 41.71954420804968 68.0283777200832)"><path d="M-1.17 0.19 C13 23.01, 70.18 113.06, 84.61 135.76 M0.41 -0.76 C14.48 22.29, 69.63 113.77, 83.75 136.82" stroke="#1e1e1e" stroke-width="4" fill="none"></path></g><g transform="translate(1028.899359485075 156.44396588324662) rotate(0 41.71954420804968 68.0283777200832)"><path d="M83.93 138.11 L71.96 127.7 L81.47 120.35 L85.32 137.03" stroke="none" stroke-width="0" fill="#1e1e1e" fill-rule="evenodd"></path><path d="M83.99 137.03 C79.4 135.7, 76.88 133.76, 70.58 128.16 M83.41 137.51 C79.92 134.48, 76.97 131.9, 70.83 128.99 M72.03 129.6 C74.75 125.76, 78.07 123.73, 81.76 123.14 M71.02 128.2 C74.43 126.76, 76.71 124.8, 82.1 121.59 M82.92 121.15 C83.99 126.43, 82.26 132.07, 84.34 137.65 M82.56 122.64 C82.78 126.05, 82.64 129.96, 84.2 136.68 M83.75 136.82 C83.75 136.82, 83.75 136.82, 83.75 136.82 M83.75 136.82 C83.75 136.82, 83.75 136.82, 83.75 136.82" stroke="#1e1e1e" stroke-width="4" fill="none"></path></g></g><mask></mask><g stroke-linecap="round"><g transform="translate(1253.3438378379396 157.55511090277787) rotate(0 -56.87597096918307 67.87039295122781)"><path d="M0.17 -0.91 C-18.55 21.6, -94.57 112.61, -113.48 135.27 M-1.2 1.23 C-19.89 23.9, -95.22 114.18, -113.92 136.65" stroke="#1e1e1e" stroke-width="4" fill="none"></path></g><g transform="translate(1253.3438378379396 157.55511090277787) rotate(0 -56.87597096918307 67.87039295122781)"><path d="M-113.24 135.86 L-110.73 120.59 L-98.78 130.48 L-112.92 135.08" stroke="none" stroke-width="0" fill="#1e1e1e" fill-rule="evenodd"></path><path d="M-115.06 137.86 C-113.53 135.18, -113.09 130.45, -110.46 122.89 M-114.28 136.62 C-112.6 132.05, -112.06 128.62, -109.9 121.76 M-110.18 121.56 C-107.45 123.98, -104.64 128.09, -100.67 131 M-109.87 122.13 C-108.51 123.75, -105.97 125.35, -100.17 130.47 M-99.06 129.89 C-104.12 131.9, -105.39 133.69, -114.32 137.22 M-100.19 130.32 C-104.06 131.86, -106.52 133.39, -114.54 137.18 M-113.92 136.65 C-113.92 136.65, -113.92 136.65, -113.92 136.65 M-113.92 136.65 C-113.92 136.65, -113.92 136.65, -113.92 136.65" stroke="#1e1e1e" stroke-width="4" fill="none"></path></g></g><mask></mask><g stroke-linecap="round" transform="translate(1035.5660261517419 301.99953839301224) rotate(0 97.77776082356763 52.77778625488281)"><path d="M143.49 6.69 C155.37 9.13, 166.45 14.38, 174.8 19.86 C183.15 25.34, 190.39 32.52, 193.59 39.57 C196.8 46.61, 196.55 55.12, 194.02 62.15 C191.48 69.17, 185.68 75.77, 178.37 81.72 C171.07 87.66, 161.46 93.93, 150.2 97.81 C138.94 101.69, 123.94 103.91, 110.8 105 C97.66 106.1, 84.02 106.42, 71.35 104.38 C58.69 102.33, 45.09 97.53, 34.81 92.72 C24.52 87.91, 15.47 81.7, 9.64 75.5 C3.8 69.31, 0.24 62.55, -0.22 55.56 C-0.68 48.56, 2.01 40.42, 6.89 33.55 C11.76 26.69, 19.53 19.4, 29.04 14.39 C38.55 9.38, 51.35 6.01, 63.95 3.51 C76.55 1.01, 90.15 -1.45, 104.63 -0.61 C119.12 0.22, 142.23 6.36, 150.85 8.52 C159.48 10.68, 157.19 11.76, 156.4 12.35 M123.23 0.89 C135.95 1.8, 149.64 7.9, 160.1 12.53 C170.56 17.16, 179.99 22.51, 185.97 28.67 C191.96 34.83, 195.39 42.02, 196.01 49.48 C196.64 56.94, 194.61 66.6, 189.75 73.42 C184.89 80.25, 176.57 85.66, 166.86 90.42 C157.14 95.17, 143.78 99.5, 131.47 101.96 C119.16 104.42, 106.31 105.39, 93.01 105.18 C79.71 104.98, 63.39 104.04, 51.68 100.73 C39.96 97.41, 30.71 91.25, 22.73 85.3 C14.75 79.36, 7.17 71.84, 3.81 65.06 C0.44 58.28, 0.43 51.29, 2.52 44.62 C4.62 37.95, 9.09 31.21, 16.38 25.06 C23.67 18.9, 35.1 11.69, 46.24 7.68 C57.39 3.66, 70.43 2.14, 83.26 0.95 C96.09 -0.25, 116.51 0.27, 123.24 0.52 C129.97 0.77, 123.78 1.39, 123.64 2.45" stroke="#1e1e1e" stroke-width="4" fill="none"></path></g><g transform="translate(1069.9232192477284 333.35779409105317) rotate(0 63.28125 21.59999999999991)"><text x="63.28125" y="0" font-family="Cascadia, Segoe UI Emoji" font-size="36px" fill="#1e1e1e" text-anchor="middle" style="white-space: pre;" direction="ltr" dominant-baseline="text-before-edge">out[1]</text></g><g stroke-linecap="round"><g transform="translate(1515.5661278770017 148.6661541970493) rotate(0 41.87045058012018 68.37359575827918)"><path d="M-0.37 -0.56 C13.59 22.13, 70.09 114.4, 84.11 137.31 M1.63 1.76 C15.38 24.62, 69.48 112.76, 82.99 135.52" stroke="#1e1e1e" stroke-width="4" fill="none"></path></g><g transform="translate(1515.5661278770017 148.6661541970493) rotate(0 41.87045058012018 68.37359575827918)"><path d="M83.96 134.91 L72.11 128.3 L81.53 119.73 L83.55 135.63" stroke="none" stroke-width="0" fill="#1e1e1e" fill-rule="evenodd"></path><path d="M82.29 135.11 C79.61 131.92, 75 130.13, 69.16 127.18 M83.7 134.92 C79.95 134.37, 77.91 132.47, 71.03 127.49 M70.84 126.34 C74.98 123.78, 79.04 121.86, 82.04 120.27 M70.56 127.35 C73.82 124.91, 76.79 123.34, 81.5 120.12 M81.94 121.45 C83.26 124.01, 81.27 128.27, 83.9 134.49 M81.42 121.06 C81.25 123.96, 81.61 127.56, 82.59 135.63 M82.99 135.52 C82.99 135.52, 82.99 135.52, 82.99 135.52 M82.99 135.52 C82.99 135.52, 82.99 135.52, 82.99 135.52" stroke="#1e1e1e" stroke-width="4" fill="none"></path></g></g><mask></mask><g stroke-linecap="round"><g transform="translate(1740.010606229866 149.77729921658056) rotate(0 -56.701042581630645 67.85858849794454)"><path d="M-0.33 0.64 C-19.45 23.37, -96.1 113.48, -115.1 135.79 M1.7 -0.07 C-17 22.32, -93.27 111.24, -112.73 133.78" stroke="#1e1e1e" stroke-width="4" fill="none"></path></g><g transform="translate(1740.010606229866 149.77729921658056) rotate(0 -56.701042581630645 67.85858849794454)"><path d="M-111.16 134.91 L-108.53 118.47 L-98.51 127.72 L-113.76 133.29" stroke="none" stroke-width="0" fill="#1e1e1e" fill-rule="evenodd"></path><path d="M-111.93 132.96 C-111.29 130.05, -111.85 126.04, -109.95 118.94 M-113.12 134.34 C-111.14 129.01, -109.41 123.61, -108.1 118.74 M-108.37 118.33 C-106.34 120.7, -103.9 122.58, -99.21 127.27 M-108.53 119.01 C-105.47 122.06, -102.13 124.34, -99.14 128.23 M-97.79 126.71 C-103.26 128.13, -104.2 129.4, -113.44 134.03 M-99.63 127.21 C-104.86 129.47, -109.85 132.5, -112.11 133.58 M-112.73 133.78 C-112.73 133.78, -112.73 133.78, -112.73 133.78 M-112.73 133.78 C-112.73 133.78, -112.73 133.78, -112.73 133.78" stroke="#1e1e1e" stroke-width="4" fill="none"></path></g></g><mask></mask><g stroke-linecap="round" transform="translate(1522.2327945436687 294.22172670681493) rotate(0 97.77776082356763 52.77778625488281)"><path d="M101.47 -0.21 C114.38 -0.54, 130.44 3.38, 142.3 6.55 C154.15 9.72, 164.17 13.37, 172.59 18.8 C181.01 24.23, 189.08 32.05, 192.82 39.15 C196.56 46.25, 197.1 54.24, 195.05 61.39 C193 68.54, 187.92 76.27, 180.53 82.03 C173.14 87.8, 161.82 92.3, 150.71 96 C139.61 99.69, 126.79 103.03, 113.88 104.2 C100.98 105.38, 86.1 104.8, 73.27 103.04 C60.44 101.28, 47.21 98.01, 36.9 93.63 C26.6 89.25, 17.59 83.09, 11.44 76.75 C5.3 70.41, 0.85 62.68, 0.05 55.59 C-0.76 48.5, 1.88 40.82, 6.63 34.2 C11.37 27.59, 19.35 21, 28.52 15.9 C37.7 10.8, 48.16 6.15, 61.68 3.6 C75.19 1.05, 100.62 0.86, 109.64 0.58 C118.66 0.31, 115.81 1.22, 115.78 1.93 M115.01 -0.27 C127.37 0.14, 141.62 6.14, 152.5 10.29 C163.38 14.44, 173.2 18.48, 180.29 24.64 C187.37 30.8, 193.13 39.9, 195 47.26 C196.87 54.63, 195.54 62.33, 191.51 68.85 C187.47 75.37, 179.64 81.3, 170.79 86.39 C161.93 91.47, 150.29 96.13, 138.36 99.36 C126.43 102.59, 112.06 105.48, 99.21 105.77 C86.37 106.05, 73.35 103.89, 61.29 101.06 C49.24 98.24, 36.28 93.98, 26.87 88.8 C17.45 83.63, 9.44 76.92, 4.8 70 C0.17 63.08, -2.23 54.14, -0.93 47.27 C0.37 40.4, 5.85 34.81, 12.62 28.77 C19.4 22.73, 29.53 15.69, 39.73 11.04 C49.93 6.39, 61.15 2.49, 73.83 0.88 C86.51 -0.74, 109 1.06, 115.83 1.34 C122.66 1.62, 115.13 1.6, 114.81 2.55" stroke="#1e1e1e" stroke-width="4" fill="none"></path></g><g transform="translate(1556.5899876396547 325.57998240485585) rotate(0 63.28125 21.59999999999991)"><text x="63.28125" y="0" font-family="Cascadia, Segoe UI Emoji" font-size="36px" fill="#1e1e1e" text-anchor="middle" style="white-space: pre;" direction="ltr" dominant-baseline="text-before-edge">out[1]</text></g><g stroke-linecap="round"><g transform="translate(246.1214460736187 423.1107342751752) rotate(0 67.19205888100305 43.834031542982984)"><path d="M1.08 -0.31 C23.51 14.69, 112.05 74.29, 134.2 89.19 M0.18 -1.53 C22.52 13.19, 111.23 72.58, 133.42 87.34" stroke="#1e1e1e" stroke-width="4" fill="none"></path></g><g transform="translate(246.1214460736187 423.1107342751752) rotate(0 67.19205888100305 43.834031542982984)"><path d="M132.97 85.91 L117.43 86.98 L126.77 73.74 L134.25 86.05" stroke="none" stroke-width="0" fill="#1e1e1e" fill-rule="evenodd"></path><path d="M133.03 87.74 C130.09 87.02, 126.02 87.57, 119.94 85.36 M133.99 86.98 C127.96 86.33, 122.36 85.12, 119.14 85.4 M118.35 85.85 C120.06 81.26, 122.75 79.63, 125.7 75.7 M118.05 85.66 C120.51 82.2, 122.62 79.13, 125.67 74.78 M125.02 74.39 C128.41 78.65, 130.23 80.87, 134 88.24 M125.63 74.79 C127.62 76.61, 128.61 80.27, 133.77 87 M133.42 87.34 C133.42 87.34, 133.42 87.34, 133.42 87.34 M133.42 87.34 C133.42 87.34, 133.42 87.34, 133.42 87.34" stroke="#1e1e1e" stroke-width="4" fill="none"></path></g></g><mask></mask><g stroke-linecap="round"><g transform="translate(668.3437361126817 425.3329734516078) rotate(0 -77.92636332512211 43.31420383729642)"><path d="M0.32 0.51 C-25.74 15.04, -129.51 72.39, -155.29 86.9 M-0.97 -0.27 C-27.27 13.93, -130.57 70.67, -156.18 85.01" stroke="#1e1e1e" stroke-width="4" fill="none"></path></g><g transform="translate(668.3437361126817 425.3329734516078) rotate(0 -77.92636332512211 43.31420383729642)"><path d="M-157.34 86.92 L-146.21 72.09 L-140.38 82.68 L-155.6 86.33" stroke="none" stroke-width="0" fill="#1e1e1e" fill-rule="evenodd"></path><path d="M-155.54 85.17 C-152.15 81.57, -147.92 75.83, -146.3 72.65 M-156.16 84.73 C-153.02 79.81, -149.04 76.2, -147.25 72.36 M-148.17 72.37 C-145.98 77.13, -143.86 80.26, -141.51 82.85 M-147.48 72.9 C-145.76 75.67, -144.12 79.02, -141.18 84.21 M-140.86 84.15 C-145.1 82.71, -148.02 85.37, -157.63 83.73 M-140.69 83.41 C-144.85 84.77, -147.99 84.18, -155.89 85.16 M-156.18 85.01 C-156.18 85.01, -156.18 85.01, -156.18 85.01 M-156.18 85.01 C-156.18 85.01, -156.18 85.01, -156.18 85.01" stroke="#1e1e1e" stroke-width="4" fill="none"></path></g></g><mask></mask><g stroke-linecap="round" transform="translate(332.788112740285 514.2218284320761) rotate(0 97.77776082356775 52.77778625488281)"><path d="M140.02 4.85 C152.03 7.1, 164.04 13.57, 172.52 19.01 C180.99 24.45, 187.23 30.79, 190.88 37.5 C194.53 44.2, 196.14 52, 194.42 59.22 C192.71 66.44, 187.32 74.64, 180.6 80.8 C173.88 86.97, 164.96 92.29, 154.12 96.22 C143.27 100.16, 128.64 102.99, 115.51 104.42 C102.39 105.85, 88.26 106.46, 75.36 104.8 C62.45 103.14, 48.68 98.72, 38.1 94.45 C27.52 90.18, 18.16 85.22, 11.88 79.17 C5.59 73.13, 1.52 65.61, 0.4 58.18 C-0.72 50.75, 0.88 41.65, 5.17 34.59 C9.46 27.53, 16.85 20.94, 26.11 15.83 C35.37 10.72, 48.46 6.57, 60.74 3.95 C73.01 1.32, 85.1 -0.57, 99.76 0.08 C114.42 0.73, 139.15 5.86, 148.7 7.85 C158.25 9.84, 157.81 11.36, 157.06 12.01 M78.25 0.89 C90.05 -1.23, 104.15 0.48, 117.22 1.81 C130.29 3.13, 145.95 4.83, 156.66 8.83 C167.37 12.82, 175.09 19.2, 181.49 25.75 C187.89 32.31, 193.4 41.06, 195.08 48.14 C196.77 55.23, 195.81 61.42, 191.61 68.29 C187.41 75.15, 178.86 83.97, 169.87 89.33 C160.88 94.69, 149.69 97.69, 137.67 100.45 C125.65 103.2, 111.15 105.97, 97.72 105.87 C84.3 105.76, 69.3 102.6, 57.14 99.8 C44.98 96.99, 33.38 94.44, 24.76 89.03 C16.13 83.62, 9.45 74.42, 5.42 67.33 C1.38 60.24, -0.56 53.16, 0.53 46.49 C1.63 39.83, 5.32 33.5, 11.96 27.34 C18.6 21.17, 29.35 13.83, 40.38 9.5 C51.42 5.17, 72 2.8, 78.2 1.36 C84.39 -0.07, 77.49 0.05, 77.56 0.9" stroke="#1e1e1e" stroke-width="4" fill="none"></path></g><g transform="translate(367.1453058362715 545.580084130117) rotate(0 63.281250000000114 21.59999999999991)"><text x="63.28125" y="0" font-family="Cascadia, Segoe UI Emoji" font-size="36px" fill="#1e1e1e" text-anchor="middle" style="white-space: pre;" direction="ltr" dominant-baseline="text-before-edge">out[5]</text></g><g stroke-linecap="round"><g transform="translate(1167.8666616126552 428.95472629262986) rotate(0 66.58804778250737 44.14942259969098)"><path d="M0.72 0.72 C22.78 15.37, 111.48 72.57, 133.54 87.15 M-0.36 0.05 C21.41 14.9, 109.74 73.32, 132.4 88.25" stroke="#1e1e1e" stroke-width="4" fill="none"></path></g><g transform="translate(1167.8666616126552 428.95472629262986) rotate(0 66.58804778250737 44.14942259969098)"><path d="M133.51 87.71 L118.31 87.65 L123.27 74.83 L131.37 88.65" stroke="none" stroke-width="0" fill="#1e1e1e" fill-rule="evenodd"></path><path d="M133.29 87.79 C125.51 86.45, 120.97 86.2, 116.52 85.04 M132.74 87.99 C129.82 87.71, 125.65 87.29, 117.6 86.71 M117.43 86.61 C119.71 82.35, 122.8 80.36, 123.53 74.48 M118.07 85.71 C119.44 83.76, 120.79 81.63, 123.92 75.51 M125.03 76.02 C126.18 79.38, 131.28 83.74, 131.77 89.56 M124.94 75.11 C127.61 80.04, 130.66 84.68, 132.04 88.66 M132.4 88.25 C132.4 88.25, 132.4 88.25, 132.4 88.25 M132.4 88.25 C132.4 88.25, 132.4 88.25, 132.4 88.25" stroke="#1e1e1e" stroke-width="4" fill="none"></path></g></g><mask></mask><g stroke-linecap="round"><g transform="translate(1590.302738098535 431.31858619222385) rotate(0 -77.48808741835842 42.68721105739337)"><path d="M-0.37 -0.83 C-26.59 13.42, -130.66 71.88, -156.61 86.2 M1.64 1.35 C-24.27 15.15, -127.88 70.09, -154.33 84.2" stroke="#1e1e1e" stroke-width="4" fill="none"></path></g><g transform="translate(1590.302738098535 431.31858619222385) rotate(0 -77.48808741835842 42.68721105739337)"><path d="M-153.58 85.81 L-146.58 71.58 L-140.38 83.81 L-154.6 83.26" stroke="none" stroke-width="0" fill="#1e1e1e" fill-rule="evenodd"></path><path d="M-155.36 83.19 C-150.86 79.52, -148.94 74.61, -146.75 71.73 M-153.89 84.24 C-153.18 81.76, -150.51 79.81, -145.35 72.14 M-145.21 71.64 C-142.29 76.29, -142.55 78.32, -140.42 83.67 M-144.91 72.16 C-143.6 74.91, -143.11 77.43, -139.01 84.01 M-140.62 82.74 C-141.59 82.8, -146.57 85.13, -153.19 83.97 M-139.21 83.23 C-144.38 83.27, -150.25 84.31, -153.88 84.82 M-154.33 84.2 C-154.33 84.2, -154.33 84.2, -154.33 84.2 M-154.33 84.2 C-154.33 84.2, -154.33 84.2, -154.33 84.2" stroke="#1e1e1e" stroke-width="4" fill="none"></path></g></g><mask></mask><g stroke-linecap="round" transform="translate(1254.7471147261385 519.0963470157903) rotate(0 97.77776082356763 52.77778625488281)"><path d="M83.9 0.13 C96.16 -1.37, 111.71 0.44, 124.52 2.61 C137.34 4.79, 150.57 8.77, 160.82 13.17 C171.06 17.58, 180.22 22.67, 186.02 29.03 C191.81 35.4, 195.1 44.07, 195.61 51.37 C196.11 58.67, 194.14 66.2, 189.05 72.83 C183.96 79.47, 174.84 86.16, 165.08 91.18 C155.31 96.2, 142.92 100.65, 130.46 102.95 C118 105.24, 103.38 105.49, 90.33 104.94 C77.28 104.38, 63.96 103.08, 52.15 99.62 C40.34 96.16, 27.87 89.9, 19.49 84.19 C11.12 78.48, 4.99 72.07, 1.89 65.38 C-1.21 58.69, -1.55 51.01, 0.9 44.05 C3.35 37.08, 8.99 29.54, 16.58 23.57 C24.17 17.6, 33.91 12.28, 46.46 8.2 C59.01 4.13, 83.17 0.21, 91.87 -0.89 C100.57 -1.99, 98.45 0.69, 98.68 1.6 M112.61 1.72 C125.05 2.12, 138.94 4.03, 150.37 7.96 C161.81 11.88, 173.91 19.02, 181.21 25.27 C188.51 31.51, 192.2 38.66, 194.16 45.42 C196.11 52.18, 196.31 59.12, 192.94 65.83 C189.56 72.54, 182.31 80.15, 173.9 85.7 C165.48 91.25, 154.42 95.71, 142.43 99.15 C130.44 102.58, 115.13 105.63, 101.96 106.31 C88.79 106.99, 75.8 106.03, 63.42 103.24 C51.04 100.46, 37.12 94.63, 27.67 89.59 C18.22 84.55, 11.29 79.73, 6.72 73 C2.15 66.27, -0.54 56.37, 0.25 49.22 C1.04 42.07, 5.45 36.41, 11.46 30.11 C17.48 23.81, 26.33 16.32, 36.35 11.43 C46.36 6.53, 58.67 2.58, 71.54 0.75 C84.41 -1.09, 106.46 0.23, 113.57 0.43 C120.69 0.62, 114.45 0.94, 114.23 1.94" stroke="#1e1e1e" stroke-width="4" fill="none"></path></g><g transform="translate(1289.104307822125 550.4546027138313) rotate(0 63.28125 21.59999999999991)"><text x="63.28125" y="0" font-family="Cascadia, Segoe UI Emoji" font-size="36px" fill="#1e1e1e" text-anchor="middle" style="white-space: pre;" direction="ltr" dominant-baseline="text-before-edge">out[6]</text></g><g stroke-linecap="round" transform="translate(781.1112976074223 733.3334859212241) rotate(0 93 38)"><path d="M117.05 0.21 C129.74 1.03, 142.17 4.87, 152.42 8.6 C162.67 12.34, 172.97 17.56, 178.55 22.63 C184.12 27.7, 186.42 33.59, 185.89 39.02 C185.37 44.45, 181.42 50.21, 175.42 55.21 C169.41 60.22, 160.7 65.86, 149.86 69.06 C139.02 72.27, 123.61 73.49, 110.38 74.43 C97.15 75.37, 83.29 76.1, 70.48 74.71 C57.68 73.32, 43.92 69.79, 33.54 66.11 C23.16 62.43, 13.8 57.52, 8.18 52.62 C2.57 47.73, -0.59 42.19, -0.16 36.72 C0.28 31.26, 4.63 24.84, 10.78 19.84 C16.93 14.84, 26.15 9.73, 36.76 6.71 C47.38 3.69, 60.35 2.48, 74.47 1.72 C88.59 0.96, 112.68 1.79, 121.49 2.13 C130.3 2.48, 127.66 3.21, 127.34 3.79 M123.03 2.49 C135.28 3.62, 146.71 8.37, 156.34 11.91 C165.98 15.45, 175.75 18.76, 180.84 23.73 C185.92 28.7, 188.14 36.11, 186.86 41.72 C185.59 47.32, 180.04 52.64, 173.19 57.34 C166.34 62.04, 156.84 66.69, 145.75 69.94 C134.66 73.19, 120.35 75.94, 106.63 76.84 C92.91 77.75, 76.32 77.42, 63.42 75.37 C50.53 73.31, 39.05 68.34, 29.26 64.53 C19.46 60.72, 9.25 57.64, 4.64 52.52 C0.03 47.39, -0.01 39.7, 1.59 33.8 C3.18 27.91, 7.63 21.88, 14.2 17.15 C20.77 12.41, 29.88 8.36, 40.98 5.4 C52.08 2.44, 67.54 -0.04, 80.79 -0.62 C94.05 -1.21, 114 1.44, 120.52 1.9 C127.05 2.35, 120.15 1.33, 119.93 2.11" stroke="#1e1e1e" stroke-width="4" fill="none"></path></g><g transform="translate(842.7097419570732 749.8634282361354) rotate(0 31.640625 21.59999999999991)"><text x="31.640625" y="0" font-family="Cascadia, Segoe UI Emoji" font-size="36px" fill="#1e1e1e" text-anchor="middle" style="white-space: pre;" direction="ltr" dominant-baseline="text-before-edge">out</text></g><g stroke-linecap="round"><g transform="translate(512.222442626954 612.2223409016933) rotate(0 131.18563054520314 62.94376056012061)"><path d="M-0.07 0.38 C43.36 21.4, 217.69 104.02, 261.57 125.07 M-1.56 -0.46 C42.18 20.8, 219.84 105.45, 263.93 126.35" stroke="#1e1e1e" stroke-width="4" fill="none"></path></g><g transform="translate(512.222442626954 612.2223409016933) rotate(0 131.18563054520314 62.94376056012061)"><path d="M263.38 127.5 L248.77 127.65 L252.79 113.13 L264.34 127.96" stroke="none" stroke-width="0" fill="#1e1e1e" fill-rule="evenodd"></path><path d="M264.42 125.53 C257.61 127.54, 253.91 126.11, 248.14 126.02 M263.8 126.18 C258.64 126.68, 252.75 126.47, 248.95 126.35 M249.79 125.83 C250.35 122.75, 250.83 120.32, 255.45 114.56 M248.96 125.82 C251.26 121.95, 253.44 117.1, 254.95 114.45 M255.84 113.41 C258.43 119.29, 262.2 123.73, 264.94 127.43 M254.38 114.8 C256.31 116.93, 259.06 119.49, 264.07 126.16 M263.93 126.35 C263.93 126.35, 263.93 126.35, 263.93 126.35 M263.93 126.35 C263.93 126.35, 263.93 126.35, 263.93 126.35" stroke="#1e1e1e" stroke-width="4" fill="none"></path></g></g><mask></mask><g stroke-linecap="round"><g transform="translate(1261.111399332683 612.2223409016933) rotate(0 -142.19596913743294 66.41890965438415)"><path d="M0.4 0.99 C-46.99 22.96, -236.53 109.18, -283.67 130.93 M-0.84 0.47 C-48.48 22.69, -237.81 110.9, -284.8 132.37" stroke="#1e1e1e" stroke-width="4" fill="none"></path></g><g transform="translate(1261.111399332683 612.2223409016933) rotate(0 -142.19596913743294 66.41890965438415)"><path d="M-286.26 132.21 L-273.24 119.73 L-269.18 130.88 L-283.75 132.74" stroke="none" stroke-width="0" fill="#1e1e1e" fill-rule="evenodd"></path><path d="M-283.55 131.95 C-281.49 129.35, -277.39 125.29, -274.77 120.1 M-285.14 131.87 C-281.7 128.13, -277.54 123.84, -275.55 121.05 M-274.83 122.03 C-273.13 124.41, -272.75 127.65, -270.01 131.55 M-275.42 120.42 C-273.25 125.57, -271.32 129.54, -269.39 132.32 M-270.59 132.19 C-275.67 131.79, -280.05 132.99, -284.13 133.22 M-270.36 132.75 C-276.35 132.09, -281.02 132.17, -285.43 131.85 M-284.8 132.37 C-284.8 132.37, -284.8 132.37, -284.8 132.37 M-284.8 132.37 C-284.8 132.37, -284.8 132.37, -284.8 132.37" stroke="#1e1e1e" stroke-width="4" fill="none"></path></g></g><mask></mask></svg>